<?xml version="1.0" encoding="UTF-8"?><svg xmlns="http://www.w3.org/2000/svg" xmlns:xlink="http://www.w3.org/1999/xlink" width="150pt" zoomAndPan="magnify" viewBox="0 0 150 149.999998" height="149.999998pt" preserveAspectRatio="xMidYMid meet" version="1.2"><g xml:id="surface1" id="surface1"><path style=" stroke:none;fill-rule:nonzero;fill:rgb(0%,63.919067%,34.899902%);fill-opacity:1;" d="M 15 15 L 42.03125 15 L 42.03125 42.03125 L 15 42.03125 Z M 15 15 "/><path style=" stroke:none;fill-rule:nonzero;fill:rgb(0%,63.919067%,34.899902%);fill-opacity:1;" d="M 15 45.988281 L 42.03125 45.988281 L 42.03125 73.023438 L 15 73.023438 Z M 15 45.988281 "/><path style=" stroke:none;fill-rule:nonzero;fill:rgb(0%,63.919067%,34.899902%);fill-opacity:1;" d="M 15 76.976562 L 42.03125 76.976562 L 42.03125 104.011719 L 15 104.011719 Z M 15 76.976562 "/><path style=" stroke:none;fill-rule:nonzero;fill:rgb(0%,63.919067%,34.899902%);fill-opacity:1;" d="M 15 107.96875 L 42.03125 107.96875 L 42.03125 135 L 15 135 Z M 15 107.96875 "/><path style=" stroke:none;fill-rule:nonzero;fill:rgb(0%,71.759033%,39.219666%);fill-opacity:1;" d="M 45.988281 45.988281 L 73.023438 45.988281 L 73.023438 73.023438 L 45.988281 73.023438 Z M 45.988281 45.988281 "/><path style=" stroke:none;fill-rule:nonzero;fill:rgb(0%,71.759033%,39.219666%);fill-opacity:1;" d="M 45.988281 76.976562 L 73.023438 76.976562 L 73.023438 104.011719 L 45.988281 104.011719 Z M 45.988281 76.976562 "/><path style=" stroke:none;fill-rule:nonzero;fill:rgb(0%,71.759033%,39.219666%);fill-opacity:1;" d="M 45.988281 107.96875 L 73.023438 107.96875 L 73.023438 135 L 45.988281 135 Z M 45.988281 107.96875 "/><path style=" stroke:none;fill-rule:nonzero;fill:rgb(0%,88.238525%,48.239136%);fill-opacity:1;" d="M 76.976562 76.976562 L 104.011719 76.976562 L 104.011719 104.011719 L 76.976562 104.011719 Z M 76.976562 76.976562 "/><path style=" stroke:none;fill-rule:nonzero;fill:rgb(0%,88.238525%,48.239136%);fill-opacity:1;" d="M 76.976562 107.96875 L 104.011719 107.96875 L 104.011719 135 L 76.976562 135 Z M 76.976562 107.96875 "/><path style=" stroke:none;fill-rule:nonzero;fill:rgb(0%,100%,54.508972%);fill-opacity:1;" d="M 107.96875 107.96875 L 135 107.96875 L 135 135 L 107.96875 135 Z M 107.96875 107.96875 "/></g></svg>