<svg xmlns="http://www.w3.org/2000/svg" fill-rule="evenodd" clip-rule="evenodd" viewBox="0 0 24 24" preserveAspectRatio="xMidYMid meet"><path d="M24 8.2c0-.318-.126-.623-.351-.849A1.203 1.203 0 0022.8 7h-6.6c-.318 0-.623.126-.849.351A1.203 1.203 0 0015 8.2v13.6c0 .318.126.623.351.849.226.225.531.351.849.351h6.6c.318 0 .623-.126.849-.351.225-.226.351-.531.351-.849V8.2zM13 23H5l2.599-3H13v3zm6.5-1a1 1 0 110-2 1 1 0 010 2zm3.5-3V9.976h-7V19h7zM21 5h-2V3H2v13h11v2H0V1h21v4zm-.5 4a.5.5 0 000-1h-2a.5.5 0 000 1h2z"/></svg>