<svg xmlns="http://www.w3.org/2000/svg" viewBox="0 0 24 24" preserveAspectRatio="xMidYMid meet"><path d="M17 12.645v-2.289c-1.17-.417-1.907-.533-2.28-1.431-.373-.9.07-1.512.6-2.625l-1.618-1.619c-1.105.525-1.723.974-2.626.6-.9-.374-1.017-1.117-1.431-2.281h-2.29c-.412 1.158-.53 1.907-1.431 2.28h-.001c-.9.374-1.51-.07-2.625-.6L1.681 6.299c.527 1.11.973 1.724.6 2.625-.375.901-1.123 1.019-2.281 1.431v2.289c1.155.412 1.907.531 2.28 1.431.376.908-.081 1.534-.6 2.625l1.618 1.619c1.107-.525 1.724-.974 2.625-.6h.001c.9.373 1.018 1.118 1.431 2.28h2.289c.412-1.158.53-1.905 1.437-2.282h.001c.894-.372 1.501.071 2.619.602l1.618-1.619c-.525-1.107-.974-1.723-.601-2.625.374-.899 1.126-1.019 2.282-1.43zm-8.5 1.689a2.834 2.834 0 11.002-5.668 2.834 2.834 0 01-.002 5.668zM24 18.539v-1.077c-.55-.196-.897-.251-1.073-.673-.176-.424.033-.711.282-1.236l-.762-.762c-.52.248-.811.458-1.235.283-.424-.175-.479-.525-.674-1.073h-1.076c-.194.545-.25.897-.674 1.073-.424.176-.711-.033-1.235-.283l-.762.762c.248.523.458.812.282 1.236-.176.424-.528.479-1.073.673v1.077c.544.193.897.25 1.073.673.177.427-.038.722-.282 1.236l.762.762c.521-.248.812-.458 1.235-.283.424.175.479.526.674 1.073h1.076c.194-.545.25-.897.676-1.074h.001c.421-.175.706.034 1.232.284l.762-.762c-.247-.521-.458-.812-.282-1.235s.529-.481 1.073-.674zm-4 .794a1.333 1.333 0 110-2.667 1.333 1.333 0 010 2.667z"/></svg>