<svg xmlns="http://www.w3.org/2000/svg"><mask id="a"><path d="M1000 0H0v718.31h179.2c38.38 142.38 167.45 247.1 320.8 247.1s282.42-104.72 320.8-247.1H1000z" fill="#fff"/></mask><g mask="url(#a)"><circle cx="500" cy="630.16" r="332.442" fill="#85c5e5"/><path d="M610 758.72c90.76 0 72 114.24 72.87 241.28H610z" fill="#FFDE34"/><path d="M632.74 831.87L610 870l11.38 130h31.76c.77-180.27-20.4-168.13-20.4-168.13z" fill="#ffd601"/><path d="M233.25 500c0-147.32 119.43-266.75 266.75-266.75S766.75 352.68 766.75 500a266.22 266.22 0 01-98.65 207.12q-8.21 6.68-16.94 12.69C591 758 515 758 446.39 751.89c-6.66-1-13.3-2.26-19.89-3.71-26.33-5.8-51.82-14.75-75.37-27.8q-8.73-5.38-16.93-11.62a199.59 199.59 0 01-15.8-13.38q-7.14-6.63-13.79-13.78A265.86 265.86 0 01233.25 500z" fill="#FFDE34"/><path d="M269.61 634.48c.7 1.2 1.39 2.4 2.11 3.58.43.72.88 1.42 1.33 2.14.66 1.07 1.32 2.14 2 3.19.48.76 1 1.5 1.46 2.24.66 1 1.32 2 2 3 .51.76 1 1.52 1.56 2.28.66 1 1.32 1.92 2 2.88.54.77 1.1 1.53 1.65 2.3s1.34 1.85 2 2.77 1.15 1.53 1.73 2.29 1.37 1.8 2.07 2.7 1.19 1.51 1.79 2.26 1.41 1.76 2.12 2.63 1.23 1.49 1.85 2.23 1.44 1.72 2.17 2.57 1.27 1.47 1.91 2.2l2.22 2.5c.65.73 1.31 1.44 2 2.16.86.94 1.73 1.87 2.6 2.79l1.21 1.28c1.29 1.34 2.59 2.68 3.91 4l.26.27c1.29 1.28 2.6 2.55 3.91 3.81l1.58 1.5c.95.89 1.9 1.78 2.86 2.66l1.16 1.06c1 .94 2.09 1.86 3.14 2.78q4.9 4.27 10 8.19 8.19 6.24 16.93 11.62c23.55 13 49 22 75.37 27.8 6.59 1.45 13.23 2.7 19.89 3.71 42.1 3.75 87 5.18 129.28-3.08C508.45 729 185.59 612.74 388.8 257.48c-2.72 1.25-5.4 2.54-8.06 3.88l-.59.29c-1.22.61-2.44 1.24-3.65 1.88l-1 .53c-3.76 2-7.48 4.07-11.13 6.23l-.9.53c-1.16.69-2.31 1.39-3.46 2.1l-.87.54q-5.36 3.35-10.55 6.93l-1.08.75c-1.09.76-2.16 1.52-3.23 2.29l-.66.47q-3.27 2.39-6.46 4.84l-.62.48c-1 .78-2 1.58-3 2.39l-1.17.94c-1 .81-2 1.62-3 2.45-2.11 1.75-4.19 3.55-6.24 5.37l-1.14 1-2.69 2.45L318 305q-4.28 4-8.37 8.17l-1.38 1.41c-.79.82-1.58 1.64-2.36 2.47-.46.49-.92 1-1.37 1.48q-2.06 2.2-4.06 4.46c-.45.51-.91 1-1.36 1.54-.71.81-1.41 1.63-2.11 2.45l-1.51 1.79c-.68.81-1.36 1.62-2 2.44-.54.66-1.08 1.33-1.61 2-1.07 1.33-2.12 2.66-3.16 4-.54.7-1.08 1.4-1.61 2.11s-1.2 1.59-1.79 2.4-1.07 1.45-1.59 2.18-1.13 1.55-1.68 2.33q-1.42 2-2.8 4.05c-.5.73-1 1.48-1.49 2.22s-1.1 1.66-1.64 2.5l-1.49 2.31-1.68 2.71c-.43.69-.86 1.38-1.28 2.07-.89 1.46-1.75 2.93-2.61 4.4l-1.22 2.16c-.54.95-1.08 1.91-1.61 2.87-.4.73-.8 1.46-1.19 2.19-.64 1.19-1.27 2.39-1.9 3.59l-1.2 2.34c-.64 1.28-1.28 2.55-1.91 3.84-.33.69-.67 1.39-1 2.09-.52 1.09-1 2.19-1.53 3.29-.31.66-.61 1.32-.91 2q-1.11 2.47-2.17 5c-.22.52-.43 1.05-.65 1.57-.53 1.27-1.05 2.54-1.56 3.82-.27.67-.53 1.34-.79 2-.5 1.26-1 2.53-1.45 3.8-.21.55-.42 1.1-.62 1.65q-.94 2.63-1.85 5.26l-.56 1.7q-.66 2-1.29 4l-.6 1.91c-.47 1.54-.93 3.08-1.37 4.63-.1.33-.2.66-.29 1q-.78 2.76-1.5 5.54c-.16.59-.3 1.19-.45 1.78-.35 1.39-.69 2.78-1 4.18l-.42 1.75c-.43 1.9-.85 3.8-1.24 5.71l-.15.77q-.51 2.55-1 5.1c-.11.61-.21 1.21-.32 1.82-.26 1.49-.51 3-.74 4.5-.08.51-.17 1-.24 1.52-.3 1.95-.57 3.91-.83 5.88l-.15 1.3c-.2 1.59-.38 3.19-.55 4.79-.06.6-.13 1.2-.19 1.81-.16 1.68-.31 3.37-.45 5.06 0 .35-.06.69-.08 1q-.22 3-.39 6.05c0 .53 0 1.07-.07 1.6q-.1 2.36-.18 4.71v1.77c0 2.05-.08 4.11-.08 6.17v.1c0 2.22 0 4.42.08 6.62 0 .76.06 1.52.08 2.28.05 1.47.1 2.94.17 4.41 0 .89.11 1.77.16 2.66.08 1.33.15 2.66.25 4 .07 1 .16 1.89.24 2.83.11 1.26.21 2.52.34 3.77.09 1 .21 1.94.31 2.91.14 1.21.27 2.43.42 3.64.12 1 .26 2 .39 2.95.16 1.18.32 2.37.5 3.55.15 1 .31 2 .47 3 .18 1.16.37 2.33.57 3.49.18 1 .36 2 .55 3 .21 1.15.43 2.3.65 3.44s.41 2 .62 3c.24 1.14.48 2.27.74 3.4s.44 2 .68 2.93c.26 1.13.54 2.25.82 3.36s.49 1.95.74 2.91c.3 1.12.6 2.23.91 3.34.26 1 .53 1.92.81 2.87.32 1.11.65 2.21 1 3.31s.58 1.89.88 2.84.7 2.19 1.06 3.28.62 1.87.94 2.8c.38 1.09.76 2.18 1.15 3.27.33.91.65 1.83 1 2.74l1.24 3.27c.35.89.69 1.79 1 2.68.44 1.09.89 2.19 1.34 3.28.36.86.71 1.73 1.08 2.59.47 1.12 1 2.22 1.45 3.33.37.82.73 1.65 1.1 2.47.52 1.16 1.07 2.3 1.6 3.44l1.08 2.3c.61 1.26 1.24 2.5 1.87 3.75.32.63.62 1.27.95 1.9q2.88 5.61 6 11.07c.29.47.66 1.08 1.02 1.69z" fill="#ffd601"/><path d="M233.25 500c0-147.32 119.43-266.75 266.75-266.75S766.75 352.68 766.75 500a266.22 266.22 0 01-98.65 207.12q-8.21 6.68-16.94 12.69C591 758 515 758 446.39 751.89c-6.66-1-13.3-2.26-19.89-3.71-26.33-5.8-51.82-14.75-75.37-27.8q-8.73-5.38-16.93-11.62a199.59 199.59 0 01-15.8-13.38q-7.14-6.63-13.79-13.78A265.86 265.86 0 01233.25 500z" fill="none" stroke="#592d3d" stroke-miterlimit="10" stroke-width="12"/><path d="M386.12 758.72c-90.77 0-72 114.24-72.87 241.28h72.87z" fill="#FFDE34"/><path d="M367.23 831.87L390 870l-11.39 130h-31.73c-.81-180.27 20.35-168.13 20.35-168.13z" fill="#ffd601"/><path d="M619.47 1070H380.53a13.28 13.28 0 01-13.27-13.28V772a13.28 13.28 0 0113.27-13.28h233.23c13.09 0 19 7.66 19 19.88v278.08a13.28 13.28 0 01-13.29 13.32z" fill="#FFDE34"/><path d="M629.05 766.62a19.33 19.33 0 01-2.51-4 17.25 17.25 0 00-8.28-3.51 28.88 28.88 0 00-4.5-.34H380.53A13.28 13.28 0 00367.26 772c29 10.42 83.29 16.24 132.74 16.24 63.06 0 104.38-9.35 129.05-21.62z" fill="#ffd601"/><path d="M610 758.72c90.76 0 72 114.24 72.87 241.28h-50.13M386.12 758.72c-90.77 0-72 114.24-72.87 241.28h50.07" fill="none" stroke="#592d3d" stroke-linecap="square" stroke-miterlimit="10" stroke-width="12"/><path d="M380.53 758.82l233.23-.1" fill="none" stroke="#592d3d" stroke-miterlimit="10" stroke-width="12"/><path d="M380.53 1070h116.62C388 1070 396.24 838.82 367.26 838.82v217.86a13.28 13.28 0 0013.27 13.32z" fill="#ffd601"/><path d="M361.26 860.85c-.19-3.67-.11-7.34.05-11s.47-7.35.86-11c.2-1.84.4-3.67.65-5.51s.49-3.67.85-5.51a44.18 44.18 0 013.59-11 44.18 44.18 0 013.59 11c.36 1.84.62 3.67.85 5.51s.45 3.67.65 5.51c.38 3.67.68 7.34.85 11s.25 7.34.06 11z" fill="#592d3d"/><path d="M632.74 870v8c.26 34 .26 69 0 102.75v75.94a13.28 13.28 0 01-13.27 13.31H380.53a13.28 13.28 0 01-13.27-13.28v-58.2-7.65c-.25-34.87-.25-69.87 0-105.3v-24.72" fill="none" stroke="#592d3d" stroke-miterlimit="10" stroke-width="12"/><path d="M626.74 870c-.19-4.17-.1-8.35.06-12.53s.47-8.35.85-12.53c.2-2.09.41-4.18.65-6.27s.49-4.17.85-6.26a55.09 55.09 0 013.59-12.53 55.09 55.09 0 013.59 12.53c.36 2.09.62 4.18.85 6.26s.45 4.18.65 6.27c.38 4.18.69 8.35.85 12.53s.25 8.36.06 12.53zM570.68 842.45C570.9 833 582.9 829 588.9 835a10.61 10.61 0 11-15.16 14.85 10.4 10.4 0 01-3.06-7.4zM408.11 842.15C407.9 834 416.9 830 422.9 833c8 3 8 14 0 19-4 2-8 0-11.75-2.48a10.39 10.39 0 01-3.04-7.37z" fill="#592d3d"/><path d="M500 831.77a27.13 27.13 0 011.5 5.84 42.47 42.47 0 01.49 5.84l.3 11.69c.09 3.89.21 7.79.25 11.69l.17 11.67c.23 15.57.22 31.16.28 46.74s.18 31.16 0 46.74c-.09 7.79-.3 15.58-.53 23.37-.1 3.89-.29 7.79-.67 11.68a92.5 92.5 0 01-1.77 11.69 92.5 92.5 0 01-1.77-11.69c-.38-3.89-.57-7.79-.67-11.68-.23-7.79-.44-15.58-.53-23.37-.2-15.58 0-31.16 0-46.74s0-31.15.18-46.73l.17-11.7.33-11.68.33-11.68a44.11 44.11 0 01.5-5.84 27.13 27.13 0 011.44-5.84z" fill="#ffd601"/><path d="M425.22 883a18.51 18.51 0 014.67-1.5 29.75 29.75 0 014.68-.5l9.35-.33 18.7-.41c12.46-.19 24.91-.24 37.38-.27s24.93-.16 37.39 0c6.23.09 12.46.3 18.7.53 3.11.11 6.23.3 9.34.67a61.34 61.34 0 019.35 1.78 59.17 59.17 0 01-9.35 1.77c-3.11.38-6.23.57-9.34.67-6.24.23-12.47.43-18.7.52-12.46.19-24.92 0-37.39 0s-24.93 0-37.4-.15c-6.23-.06-12.46-.26-18.68-.5l-9.35-.34a29.5 29.5 0 01-4.67-.5 18.45 18.45 0 01-4.68-1.44zM442.41 914.38a12.51 12.51 0 013.74-1.11 18.35 18.35 0 013.62-.15c2.39.1 4.78.16 7.17.21 4.78.11 9.56.15 14.34.17 9.63 0 19.09.08 28.76-.21s19.26-.43 28.88-.39c4.81 0 9.62.13 14.42.24a70.37 70.37 0 017.23.47 38.17 38.17 0 017.27 1.53 36.56 36.56 0 01-7.16 2 61.08 61.08 0 01-7.21.86c-4.82.35-9.64.65-14.45.82-9.64.36-19.27.32-28.88.45-4.81 0-9.61.22-14.48.1s-9.69-.13-14.52-.31-9.68-.58-14.5-1.08c-2.42-.27-4.82-.57-7.23-.9a16.82 16.82 0 01-3.57-.84 11.51 11.51 0 01-3.43-1.86zM438.93 949.87a13.07 13.07 0 013.82-1.5 19.13 19.13 0 013.82-.49l7.63-.32c5.09-.18 10.19-.33 15.28-.41 10.18-.15 20.36-.15 30.52-.15s20.36-.17 30.54 0c5.09.09 10.18.3 15.27.53a72.73 72.73 0 017.63.66 41.2 41.2 0 017.66 1.81 41.25 41.25 0 01-7.63 1.77 70.34 70.34 0 01-7.64.67c-5.09.23-10.18.44-15.27.53-10.18.2-20.37.06-30.55 0s-20.36-.06-30.54-.25c-5.09-.1-10.19-.28-15.28-.49l-7.63-.37a19.33 19.33 0 01-3.82-.5 12.85 12.85 0 01-3.81-1.49zM677.8 906.35c.21-37.11-1.21-70.07-7.73-95.39C660 785.6 641.89 770.48 610 770.48L632.79 905s22.52 10.24 45.01 1.35z" fill="#ffd601"/><path d="M686.41 895.79a20.31 20.31 0 01-3.7 2.43" fill="none" stroke="#592d3d" stroke-linecap="square" stroke-miterlimit="10" stroke-width="12"/><path d="M326.11 809.88c-6.83 25.57-8 59.13-7.74 97 19.9 8.54 50.42-2.15 50.42-2.15l17.33-132.24c-30.87-.03-49.27 13.87-60.01 37.39z" fill="#ffd601"/><path d="M613.76 758.72h-54.21v.1a62.78 62.78 0 01-1.44 13.39 60.92 60.92 0 01-1.74 6.33 50.88 50.88 0 01-10 16.83 48.2 48.2 0 01-4.5 4.43c-25.17 18.2-65.17 19.2-89.48-.58a51.79 51.79 0 01-7.11-7.6 50.84 50.84 0 01-9.1-19.41 62.41 62.41 0 01-1.07-6.59 61 61 0 01-.37-6.8v-.1h-54.21A13.28 13.28 0 00367.26 772v284.68a13.28 13.28 0 0013.27 13.32h238.94a13.28 13.28 0 0013.27-13.28V778.6c0-12.22-5.89-19.88-18.98-19.88z" fill="#FFF"/><path d="M610 758.72c63.54 0 73.4 56 73.9 133.17-18.6 11.62-48.91 1.31-48.91 1.31z" fill="#FFF"/><path d="M632.74 831.87L610 870l11.38 130h11.61V894.35l17.28 2.89c-5.67-72.17-17.53-65.37-17.53-65.37z" fill="#E2E2E2"/><path d="M386.12 758.72c-61.78 0-75.83 53.8-76.85 127.66 19 19.86 58 4.58 58 4.58z" fill="#FFF"/><path d="M367.23 831.87V891l-17.31 4.31c5.67-70.12 17.31-63.44 17.31-63.44z" fill="#E2E2E2"/><path d="M610 758.72c67.41 0 78.45 56.29 78.9 133.78-26.2 12.43-53.91.7-53.91.7M386.12 758.72c-66.79 0-80.08 54.7-80.76 130.72C326 904.22 367.22 891 367.22 891" fill="none" stroke="#592d3d" stroke-linecap="square" stroke-miterlimit="10" stroke-width="12"/><path d="M380.53 1070h116.62C388 1070 396.24 838.82 367.26 838.82v217.86a13.28 13.28 0 0013.27 13.32z" fill="#E2E2E2"/><path d="M361.26 860.85c-.19-3.67-.11-7.34.05-11s.47-7.35.86-11c.2-1.84.4-3.67.65-5.51s.49-3.67.85-5.51a44.18 44.18 0 013.59-11 43.74 43.74 0 013.58 11c.37 1.84.63 3.67.86 5.51s.45 3.67.65 5.51c.38 3.67.68 7.34.85 11s.25 7.34.06 11z" fill="#592d3d"/><path d="M632.74 870v8c.26 34 .26 69 0 102.75v75.94a13.28 13.28 0 01-13.27 13.31H380.53a13.28 13.28 0 01-13.27-13.28v-58.2-7.65c-.25-34.87-.25-69.87 0-105.3v-24.72" fill="none" stroke="#592d3d" stroke-miterlimit="10" stroke-width="12"/><path d="M626.74 870c-.19-4.17-.1-8.35.06-12.53s.47-8.35.85-12.53c.2-2.09.41-4.18.65-6.27s.49-4.17.86-6.26a54.55 54.55 0 013.58-12.53 55.09 55.09 0 013.59 12.53c.36 2.09.62 4.18.85 6.26s.45 4.18.65 6.27c.38 4.18.69 8.35.85 12.53s.25 8.36.06 12.53z" fill="#592d3d"/><path d="M380.53 758.82l233.23-.1M559.55 758.82a62.78 62.78 0 01-1.44 13.39 60.92 60.92 0 01-1.74 6.33 50.88 50.88 0 01-10 16.83 48.2 48.2 0 01-4.5 4.43c-25.17 18.2-65.17 19.2-89.48-.58a51.79 51.79 0 01-7.11-7.6 50.84 50.84 0 01-9.1-19.41 62.41 62.41 0 01-1.07-6.59 61 61 0 01-.37-6.8" fill="none" stroke="#592d3d" stroke-miterlimit="10" stroke-width="12"/><path d="M503.4 828.39a66.61 66.61 0 01-18.39 1.1 69.79 69.79 0 01-18.2-3.76 61.46 61.46 0 01-16.5-8.64l-1.86-1.41c-.61-.48-1.2-1-1.79-1.52a32.24 32.24 0 01-3.33-3.28 43.83 43.83 0 01-5.38-7.51 87.37 87.37 0 006.74 6.09c.58.48 1.17.95 1.75 1.4s1.23.82 1.84 1.24 1.22.84 1.85 1.23l1.91 1.16a88.05 88.05 0 0016.1 7.46 106.26 106.26 0 0017.25 4.45 173.7 173.7 0 0018.01 1.99z" fill="#592d3d"/><path d="M307.83 892.5a24.54 24.54 0 003.68 2.77" fill="none" stroke="#592d3d" stroke-linecap="square" stroke-miterlimit="10" stroke-width="12"/><path d="M674.7 882.69a19.88 19.88 0 01-6.76 2.52 34.83 34.83 0 01-7.2.65 40.16 40.16 0 01-7.18-.79c-1.18-.21-2.33-.56-3.49-.87s-2.27-.77-3.37-1.24c1.21 0 2.38.18 3.56.28l3.52.29c1.17 0 2.33.2 3.5.21s2.32.11 3.48.12q3.5.06 7-.19a49.31 49.31 0 006.94-.98z" fill="#592d3d"/><path d="M566.88 917.83c0-8.86-11.1-17.26-28.11-22.47 3.93-17.34 2.18-31.13-5.51-35.55a9.56 9.56 0 00-6.08-1.56c-8 .13-17.31 5.35-27.23 14.62-9.95-9.22-20.95-14.67-27.24-14.51-3.16.09-4.37.52-6.16 1.56-7.67 4.41-9.38 18.18-5.43 35.47-17 5.23-28 13.61-28 22.44s11.1 17.26 28.11 22.47c-3.93 17.34-2.18 31.13 5.51 35.55a11.93 11.93 0 006.13 1.53c7.5 0 17.31-5.35 27.24-14.62 9.92 9.22 19.74 14.51 27.24 14.51a12.11 12.11 0 006.16-1.53c7.66-4.42 9.38-18.19 5.42-35.47 16.91-5.21 27.95-13.61 27.95-22.44zm-39.72-53.49v0a6.32 6.32 0 013.1.71c3.71 2.13 5.32 10.23 4.07 20.64-.3 2.56-.79 5.26-1.39 8a133 133 0 00-17.32-3 132.78 132.78 0 00-11.34-13.63c8.88-8.19 17.21-12.71 22.88-12.72zm-51.32 67.45q1.92 3.27 3.93 6.38c-3.87-.57-7.61-1.28-11.18-2.15 1-3.52 2.26-7.15 3.68-10.77 1.12 2.18 2.29 4.36 3.57 6.54zm-7.33-32.15c3.57-.84 7.33-1.58 11.23-2.15-1.33 2.1-2.67 4.25-3.92 6.46s-2.43 4.36-3.55 6.54a114.8 114.8 0 01-3.76-10.85zm6.95 18.27c1.69-3.65 3.6-7.31 5.65-10.88s4.3-7.17 6.57-10.41c4.06-.36 8.18-.55 12.32-.55s8.23.19 12.27.52c2.26 3.24 4.47 6.71 6.6 10.36s4 7.2 5.67 10.85c-1.72 3.66-3.6 7.31-5.65 10.88s-4.3 7.17-6.57 10.42c-4.06.35-8.18.54-12.32.54s-8.23-.19-12.27-.52c-2.26-3.24-4.47-6.7-6.6-10.36s-3.95-7.2-5.67-10.85zm48.7 13.8c1.25-2.18 2.42-4.39 3.54-6.57a114.8 114.8 0 013.76 10.86c-3.57.87-7.33 1.61-11.23 2.18 1.34-2.11 2.67-4.26 3.93-6.47zm0-27.84c-1.25-2.18-2.59-4.31-3.93-6.38q5.82.85 11.18 2.15c-1 3.52-2.26 7.15-3.68 10.77-1.15-2.18-2.32-4.36-3.6-6.54zm-16.66-13.72c-2.46-.1-5-.19-7.5-.19s-5.1.06-7.58.19a105.71 105.71 0 017.5-8.72 114.37 114.37 0 017.58 8.72zm-37.93-25a6.08 6.08 0 013.14-.71v0c5.64 0 14 4.5 22.9 12.71a129.42 129.42 0 00-11.26 13.6 129.07 129.07 0 00-17.34 3c-.63-2.72-1.09-5.37-1.42-7.9-1.28-10.42.3-18.52 3.98-20.67zm-6.87 69.23c-2.7-.85-5.26-1.78-7.63-2.78-9.66-4.12-15.9-9.52-15.9-13.8s6.24-9.71 15.9-13.8c2.34-1 4.9-1.91 7.55-2.75a130.83 130.83 0 006.13 16.6 130.68 130.68 0 00-6.05 16.56zm10.12 36.91a6.43 6.43 0 01-3.08-.73c-3.71-2.13-5.32-10.23-4.07-20.64.3-2.57.79-5.26 1.39-8a131.33 131.33 0 0017.32 3 131.87 131.87 0 0011.34 13.64c-8.89 8.24-17.23 12.76-22.9 12.76zm27.23-17.09a114.59 114.59 0 01-7.58-8.73c2.46.11 5 .19 7.5.19s5.1-.05 7.58-.19a105.91 105.91 0 01-7.5 8.76zm30.38 16.25a6.08 6.08 0 01-3.14.71c-5.64 0-14-4.5-22.9-12.71a129.42 129.42 0 0011.26-13.6 129.07 129.07 0 0017.34-3 75.63 75.63 0 011.42 7.93c1.28 10.45-.3 18.54-3.98 20.7zm14.48-38.85c-2.35 1-4.91 1.9-7.56 2.75a131.52 131.52 0 00-6.13-16.61 129 129 0 006-16.52c2.7.85 5.26 1.77 7.66 2.78 9.66 4.12 15.9 9.52 15.9 13.8s-6.22 9.74-15.87 13.83z" stroke="#fff" stroke-width="16"/><circle cx="499.97" cy="917.83" r="12.46" stroke="#fff" stroke-width="24"/><path d="M566.88 917.83c0-8.86-11.1-17.26-28.11-22.47 3.93-17.34 2.18-31.13-5.51-35.55a9.56 9.56 0 00-6.08-1.56c-8 .13-17.31 5.35-27.23 14.62-9.95-9.22-20.95-14.67-27.24-14.51-3.16.09-4.37.52-6.16 1.56-7.67 4.41-9.38 18.18-5.43 35.47-17 5.23-28 13.61-28 22.44s11.1 17.26 28.11 22.47c-3.93 17.34-2.18 31.13 5.51 35.55a11.93 11.93 0 006.13 1.53c7.5 0 17.31-5.35 27.24-14.62 9.92 9.22 19.74 14.51 27.24 14.51a12.11 12.11 0 006.16-1.53c7.66-4.42 9.38-18.19 5.42-35.47 16.91-5.21 27.95-13.61 27.95-22.44zm-39.72-53.49a6.32 6.32 0 013.1.71c3.71 2.13 5.32 10.23 4.07 20.64-.3 2.56-.79 5.26-1.39 8a133 133 0 00-17.32-3 132.78 132.78 0 00-11.34-13.63c8.88-8.19 17.21-12.71 22.88-12.72zm-51.32 67.45q1.92 3.27 3.93 6.38c-3.87-.57-7.61-1.28-11.18-2.15 1-3.52 2.26-7.15 3.68-10.77 1.12 2.18 2.29 4.36 3.57 6.54zm-7.33-32.15c3.57-.84 7.33-1.58 11.23-2.15-1.33 2.1-2.67 4.25-3.92 6.46s-2.43 4.36-3.55 6.54a114.8 114.8 0 01-3.76-10.85zm6.95 18.27c1.69-3.65 3.6-7.31 5.65-10.88s4.3-7.17 6.57-10.41c4.06-.36 8.18-.55 12.32-.55s8.23.19 12.27.52c2.26 3.24 4.47 6.71 6.6 10.36s4 7.2 5.67 10.85c-1.72 3.66-3.6 7.31-5.65 10.88s-4.3 7.17-6.57 10.42c-4.06.35-8.18.54-12.32.54s-8.23-.19-12.27-.52c-2.26-3.24-4.47-6.7-6.6-10.36s-3.95-7.2-5.67-10.85zm48.7 13.8c1.25-2.18 2.42-4.39 3.54-6.57a114.8 114.8 0 013.76 10.86c-3.57.87-7.33 1.61-11.23 2.18 1.34-2.11 2.67-4.26 3.93-6.47zm0-27.84c-1.25-2.18-2.59-4.31-3.93-6.38q5.82.85 11.18 2.15c-1 3.52-2.26 7.15-3.68 10.77-1.15-2.18-2.32-4.36-3.6-6.54zm-16.66-13.72c-2.46-.1-5-.19-7.5-.19s-5.1.06-7.58.19a105.71 105.71 0 017.5-8.72 114.37 114.37 0 017.58 8.72zm-37.93-25a6.08 6.08 0 013.14-.71c5.64 0 14 4.5 22.9 12.71a129.42 129.42 0 00-11.26 13.6 129.07 129.07 0 00-17.34 3c-.63-2.72-1.09-5.37-1.42-7.9-1.28-10.42.3-18.52 3.98-20.67zm-6.87 69.23c-2.7-.85-5.26-1.78-7.63-2.78-9.66-4.12-15.9-9.52-15.9-13.8s6.24-9.71 15.9-13.8c2.34-1 4.9-1.91 7.55-2.75a130.83 130.83 0 006.13 16.6 130.68 130.68 0 00-6.05 16.56zm10.12 36.91a6.43 6.43 0 01-3.08-.73c-3.71-2.13-5.32-10.23-4.07-20.64.3-2.57.79-5.26 1.39-8a131.33 131.33 0 0017.32 3 131.87 131.87 0 0011.34 13.64c-8.89 8.24-17.23 12.76-22.9 12.76zm27.23-17.09a114.59 114.59 0 01-7.58-8.73c2.46.11 5 .19 7.5.19s5.1-.05 7.58-.19a105.91 105.91 0 01-7.5 8.76zm30.38 16.25a6.08 6.08 0 01-3.14.71c-5.64 0-14-4.5-22.9-12.71a129.42 129.42 0 0011.26-13.6 129.07 129.07 0 0017.34-3 75.63 75.63 0 011.42 7.93c1.28 10.45-.3 18.54-3.98 20.7zm14.48-38.85c-2.35 1-4.91 1.9-7.56 2.75a131.52 131.52 0 00-6.13-16.61 129 129 0 006-16.52c2.7.85 5.26 1.77 7.66 2.78 9.66 4.12 15.9 9.52 15.9 13.8s-6.22 9.74-15.87 13.83z" fill="#61dafb"/><circle cx="499.97" cy="917.83" r="12.46" fill="#61dafb"/><path d="M296.49 572.61v-12.93a49.6 49.6 0 011.94-25.32 46 46 0 013.51-7.65C305.29 518 314.29 511 323.29 508c14-4 31-2 42 9 14 15 12 37 12.45 55.62M623.31 573c-2.34-26.62 1.66-63.62 36.13-67.17a45 45 0 018.12 0 43.68 43.68 0 0122.44 8.58c18 15 14 39 13.95 58.63" fill="none" stroke="#592d3d" stroke-linecap="round" stroke-miterlimit="10" stroke-width="12"/><path d="M443.14 621.86c0-18.9 113.72-16.06 113.72 0a56.86 56.86 0 01-113.72 0z" fill="#592d3d"/><path d="M495 643c-16.95-1-31.73 6.75-36.65 18.22a56.86 56.86 0 0065.14 12.53 55.39 55.39 0 006.51-3.55c-.92-14.11-15.94-26.02-35-27.2z" fill="#f28195"/><path d="M443.14 621.86c0-18.9 113.72-16.06 113.72 0a56.86 56.86 0 01-113.72 0z" fill="none" stroke="#592d3d" stroke-miterlimit="10" stroke-width="6"/><path d="M478.12 632.46c.45-.11.63-.16.92-.21l.75-.14c.49-.09 1-.14 1.46-.18a21.54 21.54 0 012.89-.1 25 25 0 015.79.81 21.4 21.4 0 0110.35 6.1 20.18 20.18 0 015.08 10.16 17.27 17.27 0 01-1.36 10.35c-2.07-2.93-3.66-5.56-5.32-7.76a28.41 28.41 0 00-2.45-3 14.06 14.06 0 00-2.7-2.16 15.48 15.48 0 00-6.11-2.09A29.5 29.5 0 00484 644c-.59 0-1.18 0-1.76.05l-.85.06h-.62z" fill="#592d3d"/><path d="M289.63 652.2q6.38 8 13.32 15.47 6.76 7.26 14 14a204.78 204.78 0 0016.07 13.62q8.34 6.34 17.24 11.82c24 13.28 49.91 22.39 76.71 28.3 6.7 1.47 13.46 2.74 20.24 3.77 69.83 6.22 147.18 6.22 208.41-32.65q8.88-6.12 17.25-12.91c15.56-12.65 28-26.65 40.9-44.33-83.93 0-138.94-94.73-207.41-94.73S367.92 652.2 289.63 652.2z" fill="#ffd601"/><path d="M291.53 666.4q6.25 7.85 13.08 15.2 6.64 7.14 13.79 13.78a199.59 199.59 0 0015.8 13.38c5.46 4.16 11.12 8 16.93 11.62 23.55 13 49 22 75.37 27.8 6.59 1.45 13.23 2.7 19.89 3.71C515 758 591 758 651.16 719.81q8.73-6 16.94-12.69a268.58 268.58 0 0041.39-42c-82.46 0-137.71-94.64-205-94.64S368.44 666.4 291.53 666.4z" fill="#85c5e5" stroke="#592d3d" stroke-miterlimit="10" stroke-width="12"/><path d="M453.37 752.49l5.5.43 1.32.1c1.57.11 3.14.23 4.72.33l1.29.09 5.18.33 2 .12 5 .26 2.16.1 3.35.15 2.56.1 4.46.14 3 .08h2.41c1.73 0 3.46.06 5.19.08h1.91q5.58 0 11.16-.06h1.1c2.44 0 4.87-.11 7.3-.2h.28q6-.23 12-.62h.31c10.79-.73 21.53-1.92 32.13-3.68q4-.66 7.95-1.43c-33.29-9.82-129.24-43.29-193-117.69-29.32 19.08-59.55 35.28-91.16 35.28l.35.44 2.44 3 .75.9c.8 1 1.62 1.93 2.44 2.88l1.57 1.82.53.6c.65.74 1.31 1.49 2 2.22s1.31 1.44 2 2.16c.86.94 1.73 1.87 2.6 2.79l1.21 1.28c1.29 1.34 2.59 2.68 3.91 4l.26.27c1.29 1.28 2.6 2.55 3.91 3.81l1.58 1.5c.95.89 1.9 1.78 2.86 2.66l1.16 1.06c1 .94 2.09 1.86 3.14 2.78 1.54 1.35 3.1 2.66 4.68 3.95l.42.35q2.44 2 4.93 3.89c5.46 4.16 11.12 8 16.93 11.62a262 262 0 0046.16 19.89c2.07.68 4.15 1.32 6.24 2q11.36 3.4 23 6 5.69 1.26 11.42 2.29c2.82.51 5.64 1 8.47 1.42l5.71.49z" fill="#67B7D6"/><path d="M579.81 624.61c-6.52-1.65-13-3.05-19.57-4.22s-13.09-2.18-19.63-3-13.12-1.45-19.68-1.89-13.14-.64-19.71-.65h-4.93l-4.93.13c-1.64 0-3.28.11-4.92.19s-3.29.13-4.92.26c-6.57.38-13.11 1.09-19.66 1.87a398 398 0 00-39.21 7.32 159.22 159.22 0 0138.13-13.52c3.32-.66 6.64-1.41 10-1.88 1.68-.25 3.35-.56 5-.75l5.06-.6a192.24 192.24 0 0120.36-1c6.79 0 13.59.39 20.34 1.11a193.91 193.91 0 0120.08 3.25 180.43 180.43 0 0119.57 5.41 118.4 118.4 0 0118.62 7.97zM364.82 686.87c11.06 3.46 22.25 6.26 33.51 8.69 2.81.59 5.63 1.2 8.45 1.76s5.64 1.12 8.48 1.58c5.66 1 11.32 2 17 2.77 11.38 1.57 22.76 2.94 34.2 3.74s22.88 1.26 34.33 1.29h8.59l8.58-.26c2.86 0 5.72-.22 8.58-.37s5.72-.26 8.57-.53c11.43-.76 22.81-2.16 34.18-3.69a531.12 531.12 0 0067.44-15A312.64 312.64 0 01570.36 708c-5.73 1-11.45 2.24-17.24 3-2.89.4-5.77.88-8.67 1.19l-8.7.94c-11.63 1-23.3 1.71-35 1.61s-23.35-.61-35-1.76-23.17-2.82-34.6-5.14a342.06 342.06 0 01-33.87-8.46 234 234 0 01-32.46-12.51zM584.88 662.69c-14.62 1.67-29.24 2.5-43.86 3.13s-29.25.86-43.87.87-29.25-.27-43.87-.86-29.24-1.47-43.86-3.14c14.62-1.68 29.24-2.51 43.86-3.15s29.25-.86 43.87-.85 29.24.28 43.87.86 29.24 1.45 43.86 3.14z" fill="#592d3d"/><path d="M291.53 666.4q6.25 7.85 13.08 15.2 6.64 7.14 13.79 13.78a199.59 199.59 0 0015.8 13.38c5.46 4.16 11.12 8 16.93 11.62 23.55 13 49 22 75.37 27.8 6.59 1.45 13.23 2.7 19.89 3.71C515 758 591 758 651.16 719.81q8.73-6 16.94-12.69a268.58 268.58 0 0041.39-42c-82.46 0-137.71-94.64-205-94.64S368.44 666.4 291.53 666.4zM673 659s48.64-10.61 84.3-88.54M330 659.06s-53.47-13.43-87-87.61" fill="none" stroke="#592d3d" stroke-miterlimit="10" stroke-width="12"/><path d="M600.89 460.57a318.14 318.14 0 0133.51-6.65l-2.66.35c13.18-1.74 26.54-2.25 39.75-.48l-2.66-.36c3.27.46 6.54 1 9.82 1.42l-2.66-.36a221 221 0 0129.48 6.11c5 1.39 11.1-1.73 12.3-7a10.19 10.19 0 00-7-12.3 239.21 239.21 0 00-34.59-6.78l2.66.36a143 143 0 00-33.44-1.95 235.08 235.08 0 00-33.09 4.55c-5.62 1.13-11.2 2.43-16.76 3.8-5.08 1.25-8.62 7.26-7 12.3a10.19 10.19 0 0012.3 7zM286.14 460.6a202.56 202.56 0 0129.25-6.19l-2.66.36a195.53 195.53 0 0151.38.08l-2.66-.35a218.94 218.94 0 0129.45 6.1c5 1.4 11.1-1.73 12.3-7a10.19 10.19 0 00-7-12.3 227.26 227.26 0 00-44.2-7.7 208.27 208.27 0 00-71.22 7.71 10.39 10.39 0 00-6 4.6 10.2 10.2 0 00-1 7.7c1.65 5.11 6.91 8.54 12.3 7z" fill="#592d3d"/></g></svg>