<svg xmlns="http://www.w3.org/2000/svg" xmlns:xlink="http://www.w3.org/1999/xlink" viewBox="-3 49 646 532"><defs><path d="M91.22 102.77c-22.35 7.48-38.49 42.53-27.49 75.42 10.19 30.45 41.05 48.03 62.29 44.89-.16.27-.26.56-.3.87-.07.54-.58 4.87-.65 5.41-.16 1.34.79 2.55 2.13 2.72.38.04.76 0 1.12-.13l10.93-3.92a2.447 2.447 0 001.48-3.12c-.13-.36-.34-.68-.61-.94-.4-.38-3.55-3.39-3.95-3.77-.14-.13-.29-.24-.46-.33 18.94-10.21 33.07-42.89 22.86-73.4-11-32.9-44.99-51.18-67.35-43.7z" id="a"/><path d="M136.89 174.46c-.95 2.16 2.53 3.29 3.47 1.15 9.23-21.03.69-45.62-19.6-56.39-2.06-1.09-4.11 1.94-2.03 3.05 18.98 9.79 26.96 32.73 18.16 52.19z" id="b"/><path d="M536.77 54.82c-22.36 7.48-38.5 42.53-27.5 75.42 10.19 30.45 41.06 48.03 62.29 44.89-.15.27-.25.56-.3.87-.06.54-.58 4.87-.65 5.41a2.44 2.44 0 002.13 2.71c.38.05.76.01 1.12-.12 1.09-.39 9.84-3.53 10.94-3.92a2.45 2.45 0 001.47-3.12c-.13-.36-.34-.68-.61-.94-.4-.38-3.55-3.39-3.94-3.77-.14-.13-.3-.24-.47-.33 18.94-10.21 33.07-42.89 22.86-73.4-11-32.9-44.99-51.18-67.34-43.7z" id="c"/><path d="M582.43 126.51c-.94 2.16 2.54 3.29 3.48 1.15 9.23-21.03.68-45.62-19.61-56.39-2.06-1.09-4.11 1.94-2.03 3.04 18.98 9.8 26.96 32.74 18.16 52.2z" id="d"/><path d="M290.18 198.62c-1.44 0-2.62 1.17-2.62 2.62a2.625 2.625 0 005.25 0c0-1.45-1.18-2.62-2.63-2.62z" id="e"/><path d="M284.6 298.67a5.181 5.181 0 000 10.36 5.181 5.181 0 000-10.36z" id="f"/><path d="M197.89 283.1c-1.65 0-2.99 1.34-2.99 3 0 1.65 1.34 2.99 2.99 2.99 1.65 0 2.99-1.34 2.99-2.99 0-1.66-1.34-3-2.99-3z" id="g"/><path d="M243.36 233.6c-1.79 0-3.25 1.45-3.25 3.24 0 1.79 1.46 3.24 3.25 3.24a3.24 3.24 0 100-6.48z" id="h"/><path d="M402.84 424.59c-1.45 0-2.63 1.18-2.63 2.63 0 1.44 1.18 2.62 2.63 2.62 1.44 0 2.62-1.18 2.62-2.62 0-1.45-1.18-2.63-2.62-2.63z" id="i"/><path d="M316.98 365.57c-2.87 0-5.18 2.32-5.18 5.18s2.31 5.18 5.18 5.18c2.86 0 5.17-2.32 5.17-5.18s-2.31-5.18-5.17-5.18z" id="j"/><path d="M375.95 301.76c-1.65 0-2.99 1.34-2.99 3 0 1.65 1.34 2.99 2.99 2.99a2.994 2.994 0 100-5.99z" id="k"/><path d="M395.63 365.59a3.24 3.24 0 100 6.48 3.24 3.24 0 100-6.48z" id="l"/><path d="M561.57 518.17c7.63 9.11 11.49 18.43 8.63 20.82-2.86 2.4-11.36-3.04-18.99-12.15-7.62-9.11-11.49-18.44-8.63-20.83 2.86-2.4 11.36 3.05 18.99 12.16z" id="m"/><path d="M510.63 472.01c-23.76 0-43.02 19.26-43.02 43.02s19.26 43.02 43.02 43.02 43.03-19.26 43.03-43.02-19.27-43.02-43.03-43.02z" id="n"/><path d="M528.84 548.8v23.41h-13.07V548.8h13.07z" id="o"/><path d="M502.7 548.8v23.41h-13.07V548.8h13.07z" id="p"/><path d="M528.84 572.49c0 2.25-4.87 4.08-10.89 4.08-6.02 0-10.89-1.83-10.89-4.08 0-2.26 4.87-4.09 10.89-4.09 6.02 0 10.89 1.83 10.89 4.09z" id="q"/><path d="M502.7 571.94c0 2.26-4.88 4.09-10.89 4.09-6.02 0-10.89-1.83-10.89-4.09 0-2.25 4.87-4.08 10.89-4.08 6.01 0 10.89 1.83 10.89 4.08z" id="r"/><path d="M535 440.61c17.08 4.24 27.8 20.22 23.96 35.7-3.84 15.47-16.58 15.52-33.66 11.28s-32.02-11.17-28.18-26.64c3.84-15.47 20.8-24.58 37.88-20.34z" id="s"/><path d="M465.07 488.97c10.73 5.09 18.14 11.95 16.54 15.32-1.6 3.37-11.6 1.97-22.33-3.12-10.73-5.09-18.14-11.95-16.54-15.32 1.6-3.37 11.59-1.97 22.33 3.12z" id="t"/><path d="M504.2 491.61c-7.92 0-14.34 6.42-14.34 14.34s6.42 14.35 14.34 14.35 14.34-6.43 14.34-14.35-6.42-14.34-14.34-14.34z" id="u"/><path d="M498.3 496.03a4.78 4.78 0 100 9.56c2.65 0 4.79-2.14 4.79-4.78s-2.14-4.78-4.79-4.78z" id="v"/><path d="M505.5 546.96c-5.19.94-10.17-2.5-11.12-7.7v-.02c-.94-5.19 3.08-7.03 8.27-7.97 5.2-.94 9.61-.63 10.55 4.57.94 5.19-2.5 10.17-7.7 11.12z" id="w"/><path d="M158.29 462.45c3.49 1.33 2.87 11.41-1.37 22.5-4.24 11.1-10.5 19.02-13.99 17.69-3.48-1.34-2.87-11.41 1.37-22.51 4.25-11.1 10.51-19.01 13.99-17.68z" id="x"/><path d="M110.85 472.01c-23.77 0-43.03 19.26-43.03 43.02s19.26 43.02 43.03 43.02c23.76 0 43.02-19.26 43.02-43.02s-19.26-43.02-43.02-43.02z" id="y"/><path d="M104.31 548.8v23.41H91.24V548.8h13.07z" id="z"/><path d="M130.45 548.8v23.41h-13.07V548.8h13.07z" id="A"/><path d="M113.02 572.49c0 2.25-4.87 4.08-10.89 4.08-6.01 0-10.89-1.83-10.89-4.08 0-2.26 4.88-4.09 10.89-4.09 6.02 0 10.89 1.83 10.89 4.09z" id="B"/><path d="M139.16 571.94c0 2.26-4.87 4.09-10.89 4.09-6.01 0-10.89-1.83-10.89-4.09 0-2.25 4.88-4.08 10.89-4.08 6.02 0 10.89 1.83 10.89 4.08z" id="C"/><path d="M111.93 489.43c-8.12 0-14.7 6.59-14.7 14.71 0 8.12 6.58 14.7 14.7 14.7 8.13 0 14.71-6.58 14.71-14.7s-6.58-14.71-14.71-14.71z" id="D"/><path d="M111.93 499.24c-2.7 0-4.9 2.19-4.9 4.9 0 2.71 2.2 4.9 4.9 4.9 2.71 0 4.91-2.19 4.91-4.9 0-2.71-2.2-4.9-4.91-4.9z" id="E"/><path d="M93.91 439.91c17.18-3.84 33.91 5.67 37.39 21.22 3.47 15.56-7.91 21.3-25.08 25.14-17.17 3.83-33.63 4.31-37.11-11.25-3.47-15.56 7.63-31.28 24.8-35.11z" id="F"/><path d="M65.28 488.97c10.74 5.09 18.14 11.95 16.54 15.32-1.6 3.37-11.59 1.97-22.33-3.12-10.73-5.09-18.14-11.95-16.54-15.32 1.6-3.37 11.6-1.97 22.33 3.12z" id="G"/><path d="M112.59 543.08c12.03 0 23.31-11.86 23.31-16.07 0-4.21-11.28.82-23.31.82-12.04 0-22.88-1.49-22.88 2.72s10.84 12.53 22.88 12.53z" id="H"/><path d="M316.35 431.05c-23.76 0-43.02 19.26-43.02 43.02s19.26 43.03 43.02 43.03 43.03-19.27 43.03-43.03-19.27-43.02-43.03-43.02z" id="I"/><path d="M309.82 507.84v23.42h-13.07v-23.42h13.07z" id="J"/><path d="M335.96 507.84v23.42h-13.07v-23.42h13.07z" id="K"/><path d="M318.53 531.53c0 2.25-4.87 4.08-10.89 4.08-6.02 0-10.89-1.83-10.89-4.08 0-2.26 4.87-4.09 10.89-4.09 6.02 0 10.89 1.83 10.89 4.09z" id="L"/><path d="M344.67 530.98c0 2.26-4.87 4.09-10.89 4.09-6.01 0-10.89-1.83-10.89-4.09 0-2.25 4.88-4.08 10.89-4.08 6.02 0 10.89 1.83 10.89 4.08z" id="M"/><path d="M299.42 398.95c17.18-3.83 33.91 5.67 37.39 21.23 3.47 15.55-7.91 21.29-25.08 25.13-17.18 3.83-33.64 4.31-37.11-11.25-3.47-15.56 7.63-31.28 24.8-35.11z" id="N"/><path d="M374.29 433.09c2.92 2.93-2.26 12.86-11.57 22.18-9.32 9.33-19.25 14.52-22.18 11.59-2.92-2.92 2.26-12.86 11.57-22.18 9.32-9.32 19.25-14.51 22.18-11.59z" id="O"/><path d="M270.11 447.68c9.31 9.32 14.49 19.25 11.57 22.18-2.93 2.92-12.86-2.27-22.18-11.59-9.31-9.32-14.49-19.26-11.57-22.18 2.93-2.93 12.86 2.26 22.18 11.59z" id="P"/><path d="M510.43 123.25c-79.77 2.36-81.72 148.65-4.7 159.15-.11.87-.66 5.19-1.64 12.97l23.79-.77c-1.48-7.7-2.3-11.98-2.46-12.83 30.98-6.85 53.79-40.75 52.49-80.75-1.42-44.11-31.64-78.93-67.48-77.77z" id="Q"/><path d="M461.77 225.77a146.452 146.452 0 01-1.65-50.92l8.99-.29c-3.32 17.73-2.77 34.7 1.65 50.92-5.39.17-8.39.27-8.99.29z" id="R"/><path d="M529.05 281.56c.11 3.6.18 5.6.19 5.99-16.17.53-25.16.82-26.96.88-.11-3.6-.18-5.59-.19-5.99 16.17-.53 25.16-.82 26.96-.88z" id="S"/><path d="M448.03 509.68l66.74-226.34 2.72 1.28-66.74 226.34-2.72-1.28z" id="T"/><path d="M602.32 140.08c-74.08-29.68-134.26 103.67-67.84 144.05-.44.75-2.67 4.49-6.67 11.23l22.12 8.79c1.72-7.65 2.67-11.9 2.86-12.75 31.14 6.09 65.59-15.89 80.36-53.07 16.3-41.02 2.5-85.01-30.83-98.25z" id="U"/><path d="M516.79 214.66c3.45-16.76 9.82-32.79 18.81-47.35.84.33 7.52 2.99 8.36 3.32-10.12 14.94-16.39 30.72-18.82 47.35-5.01-1.99-7.79-3.1-8.35-3.32z" id="V"/><path d="M531.13 282.71c15.04 5.97 23.4 9.29 25.07 9.96-1.33 3.34-2.07 5.2-2.21 5.57-15.04-5.98-23.4-9.3-25.07-9.96 1.33-3.35 2.07-5.2 2.21-5.57z" id="W"/><path d="M447.61 503.51l93.19-212.64 2.6 1.48L450.22 505l-2.61-1.49z" id="X"/><path d="M35.21 156.55c-73.25 31.69-20.98 168.33 54.46 149.62.22.85 1.31 5.06 3.28 12.65l21.82-9.51c-4.22-6.6-6.57-10.27-7.04-11.01 26.26-17.81 34.92-57.75 18.93-94.43-17.63-40.46-58.58-61.64-91.45-47.32z" id="Y"/><path d="M27.9 269.8a146.146 146.146 0 01-20.36-46.7c.83-.36 7.42-3.24 8.24-3.59 3.48 17.7 10.26 33.27 20.36 46.7-4.94 2.15-7.69 3.35-8.24 3.59z" id="Z"/><path d="M111.03 296.77c1.44 3.3 2.24 5.13 2.4 5.5-14.84 6.46-23.08 10.06-24.73 10.77-1.44-3.29-2.23-5.12-2.39-5.49 14.83-6.47 23.07-10.06 24.72-10.78z" id="aa"/><path d="M168.24 511.53c-.8.2-1.62-.29-1.82-1.09-4.34-13.76-26.05-82.56-65.14-206.4l2.91-.72c39.09 123.84 60.8 192.64 65.14 206.4.2.8-.29 1.61-1.09 1.81z" id="ab"/><path d="M28.81 576.79a.994.994 0 110-1.99h156.84a.994.994 0 110 1.99H28.81z" id="ac"/><path d="M427.4 576.79a.994.994 0 110-1.99h156.84a.994.994 0 110 1.99H427.4z" id="ad"/><path d="M240.59 535.84c-.55 0-1-.45-1-1 0-.56.45-1 1-1h156.84c.55 0 1 .44 1 1 0 .55-.45 1-1 1H240.59z" id="ae"/><path d="M314.54 453.27c-8.12 0-14.7 6.59-14.7 14.71 0 8.12 6.58 14.7 14.7 14.7s14.71-6.58 14.71-14.7-6.59-14.71-14.71-14.71z" id="af"/><path d="M314.54 463.07c-2.7 0-4.9 2.2-4.9 4.91 0 2.7 2.2 4.9 4.9 4.9 2.71 0 4.9-2.2 4.9-4.9 0-2.71-2.19-4.91-4.9-4.91z" id="ag"/><path d="M318.52 506.29c-5.2.95-10.17-2.5-11.12-7.69v-.02c-.94-5.2 3.07-7.04 8.27-7.98 5.2-.94 9.61-.63 10.55 4.57.94 5.2-2.5 10.18-7.7 11.12z" id="ah"/></defs><use xlink:href="#a" fill="#f2f2f2"/><use xlink:href="#a" fill-opacity="0" stroke="#000" stroke-opacity="0"/><use xlink:href="#b" fill="#fff"/><use xlink:href="#b" fill-opacity="0" stroke="#000" stroke-opacity="0"/><use xlink:href="#c" fill="#f2f2f2"/><use xlink:href="#c" fill-opacity="0" stroke="#000" stroke-opacity="0"/><use xlink:href="#d" fill="#fff"/><use xlink:href="#d" fill-opacity="0" stroke="#000" stroke-opacity="0"/><use xlink:href="#e" fill="#ccc"/><use xlink:href="#e" fill-opacity="0" stroke="#000" stroke-opacity="0"/><use xlink:href="#f" fill="#ccc"/><use xlink:href="#f" fill-opacity="0" stroke="#000" stroke-opacity="0"/><use xlink:href="#g" fill="#ccc"/><use xlink:href="#g" fill-opacity="0" stroke="#000" stroke-opacity="0"/><use xlink:href="#h" fill="#ccc"/><use xlink:href="#h" fill-opacity="0" stroke="#000" stroke-opacity="0"/><use xlink:href="#i" fill="#ccc"/><use xlink:href="#i" fill-opacity="0" stroke="#000" stroke-opacity="0"/><use xlink:href="#j" fill="#ccc"/><use xlink:href="#j" fill-opacity="0" stroke="#000" stroke-opacity="0"/><use xlink:href="#k" fill="#ccc"/><use xlink:href="#k" fill-opacity="0" stroke="#000" stroke-opacity="0"/><use xlink:href="#l" fill="#ccc"/><use xlink:href="#l" fill-opacity="0" stroke="#000" stroke-opacity="0"/><use xlink:href="#m" fill="#2f2e41"/><use xlink:href="#m" fill-opacity="0" stroke="#000" stroke-opacity="0"/><use xlink:href="#n" fill="#2f2e41"/><use xlink:href="#n" fill-opacity="0" stroke="#000" stroke-opacity="0"/><use xlink:href="#o" fill="#2f2e41"/><use xlink:href="#o" fill-opacity="0" stroke="#000" stroke-opacity="0"/><use xlink:href="#p" fill="#2f2e41"/><use xlink:href="#p" fill-opacity="0" stroke="#000" stroke-opacity="0"/><use xlink:href="#q" fill="#2f2e41"/><use xlink:href="#q" fill-opacity="0" stroke="#000" stroke-opacity="0"/><use xlink:href="#r" fill="#2f2e41"/><use xlink:href="#r" fill-opacity="0" stroke="#000" stroke-opacity="0"/><use xlink:href="#s" fill="#e6e6e6"/><use xlink:href="#s" fill-opacity="0" stroke="#000" stroke-opacity="0"/><use xlink:href="#t" fill="#2f2e41"/><use xlink:href="#t" fill-opacity="0" stroke="#000" stroke-opacity="0"/><use xlink:href="#u" fill="#fff"/><use xlink:href="#u" fill-opacity="0" stroke="#000" stroke-opacity="0"/><use xlink:href="#v" fill="#3f3d56"/><use xlink:href="#v" fill-opacity="0" stroke="#000" stroke-opacity="0"/><use xlink:href="#w" fill="#fff"/><use xlink:href="#w" fill-opacity="0" stroke="#000" stroke-opacity="0"/><use xlink:href="#x" fill="#2f2e41"/><use xlink:href="#x" fill-opacity="0" stroke="#000" stroke-opacity="0"/><use xlink:href="#y" fill="#2f2e41"/><use xlink:href="#y" fill-opacity="0" stroke="#000" stroke-opacity="0"/><use xlink:href="#z" fill="#2f2e41"/><use xlink:href="#z" fill-opacity="0" stroke="#000" stroke-opacity="0"/><use xlink:href="#A" fill="#2f2e41"/><use xlink:href="#A" fill-opacity="0" stroke="#000" stroke-opacity="0"/><use xlink:href="#B" fill="#2f2e41"/><use xlink:href="#B" fill-opacity="0" stroke="#000" stroke-opacity="0"/><use xlink:href="#C" fill="#2f2e41"/><use xlink:href="#C" fill-opacity="0" stroke="#000" stroke-opacity="0"/><use xlink:href="#D" fill="#fff"/><use xlink:href="#D" fill-opacity="0" stroke="#000" stroke-opacity="0"/><g><use xlink:href="#E" fill="#3f3d56"/><use xlink:href="#E" fill-opacity="0" stroke="#000" stroke-opacity="0"/></g><g><use xlink:href="#F" fill="#e6e6e6"/><use xlink:href="#F" fill-opacity="0" stroke="#000" stroke-opacity="0"/></g><g><use xlink:href="#G" fill="#2f2e41"/><use xlink:href="#G" fill-opacity="0" stroke="#000" stroke-opacity="0"/></g><g><use xlink:href="#H" fill="#fff"/><use xlink:href="#H" fill-opacity="0" stroke="#000" stroke-opacity="0"/></g><g><use xlink:href="#I" fill="#2f2e41"/><use xlink:href="#I" fill-opacity="0" stroke="#000" stroke-opacity="0"/></g><g><use xlink:href="#J" fill="#2f2e41"/><use xlink:href="#J" fill-opacity="0" stroke="#000" stroke-opacity="0"/></g><g><use xlink:href="#K" fill="#2f2e41"/><use xlink:href="#K" fill-opacity="0" stroke="#000" stroke-opacity="0"/></g><g><use xlink:href="#L" fill="#2f2e41"/><use xlink:href="#L" fill-opacity="0" stroke="#000" stroke-opacity="0"/></g><g><use xlink:href="#M" fill="#2f2e41"/><use xlink:href="#M" fill-opacity="0" stroke="#000" stroke-opacity="0"/></g><g><use xlink:href="#N" fill="#6c63ff"/><use xlink:href="#N" fill-opacity="0" stroke="#000" stroke-opacity="0"/></g><g><use xlink:href="#O" fill="#2f2e41"/><use xlink:href="#O" fill-opacity="0" stroke="#000" stroke-opacity="0"/></g><g><use xlink:href="#P" fill="#2f2e41"/><use xlink:href="#P" fill-opacity="0" stroke="#000" stroke-opacity="0"/></g><g><use xlink:href="#Q" fill="#ff6584"/><use xlink:href="#Q" fill-opacity="0" stroke="#000" stroke-opacity="0"/></g><g><use xlink:href="#R" fill="#fff"/><use xlink:href="#R" fill-opacity="0" stroke="#000" stroke-opacity="0"/></g><g><use xlink:href="#S" fill="#3f3d56"/><use xlink:href="#S" fill-opacity="0" stroke="#000" stroke-opacity="0"/></g><g><use xlink:href="#T" fill="#3f3d56"/><use xlink:href="#T" fill-opacity="0" stroke="#000" stroke-opacity="0"/></g><g><use xlink:href="#U" fill="#6c63ff"/><use xlink:href="#U" fill-opacity="0" stroke="#000" stroke-opacity="0"/></g><g><use xlink:href="#V" fill="#fff"/><use xlink:href="#V" fill-opacity="0" stroke="#000" stroke-opacity="0"/></g><g><use xlink:href="#W" fill="#3f3d56"/><use xlink:href="#W" fill-opacity="0" stroke="#000" stroke-opacity="0"/></g><g><use xlink:href="#X" fill="#3f3d56"/><use xlink:href="#X" fill-opacity="0" stroke="#000" stroke-opacity="0"/></g><g><use xlink:href="#Y" fill="#6c63ff"/><use xlink:href="#Y" fill-opacity="0" stroke="#000" stroke-opacity="0"/></g><g><use xlink:href="#Z" fill="#fff"/><use xlink:href="#Z" fill-opacity="0" stroke="#000" stroke-opacity="0"/></g><g><use xlink:href="#aa" fill="#3f3d56"/><use xlink:href="#aa" fill-opacity="0" stroke="#000" stroke-opacity="0"/></g><g><use xlink:href="#ab" fill="#3f3d56"/><use xlink:href="#ab" fill-opacity="0" stroke="#000" stroke-opacity="0"/></g><g><use xlink:href="#ac" fill="#ccc"/><use xlink:href="#ac" fill-opacity="0" stroke="#000" stroke-opacity="0"/></g><g><use xlink:href="#ad" fill="#ccc"/><use xlink:href="#ad" fill-opacity="0" stroke="#000" stroke-opacity="0"/></g><g><use xlink:href="#ae" fill="#ccc"/><use xlink:href="#ae" fill-opacity="0" stroke="#000" stroke-opacity="0"/></g><g><use xlink:href="#af" fill="#fff"/><use xlink:href="#af" fill-opacity="0" stroke="#000" stroke-opacity="0"/></g><g><use xlink:href="#ag" fill="#3f3d56"/><use xlink:href="#ag" fill-opacity="0" stroke="#000" stroke-opacity="0"/></g><g><use xlink:href="#ah" fill="#fff"/><use xlink:href="#ah" fill-opacity="0" stroke="#000" stroke-opacity="0"/></g></svg>