<svg xmlns="http://www.w3.org/2000/svg" xmlns:xlink="http://www.w3.org/1999/xlink" viewBox="-5 -5 989 605"><defs><path d="M25.08.11c-4.14 0-7.49 3.36-7.49 7.49v456.54c0 4.13 3.35 7.49 7.49 7.49h884.1a7.498 7.498 0 006.02-3.06c.4-.52.72-1.1.95-1.72.35-.86.52-1.78.52-2.71V7.6c0-4.13-3.36-7.49-7.49-7.49H25.08zm888.59 464.03a4.49 4.49 0 01-4.49 4.49H25.08a4.49 4.49 0 01-4.49-4.49V7.6a4.49 4.49 0 014.49-4.49h884.1a4.49 4.49 0 014.49 4.49v456.54z" id="a"/><path d="M206.95 145.53c-2 .04-3.59 1.68-3.56 3.68a3.614 3.614 0 003.56 3.56h170.71c2 .03 3.64-1.57 3.67-3.57a3.63 3.63 0 00-3.56-3.67H206.95z" id="b"/><path d="M206.95 112.57a3.62 3.62 0 000 7.24h48.83c2 .03 3.64-1.57 3.67-3.57a3.615 3.615 0 00-3.55-3.67H206.95z" id="c"/><path d="M206.95 179.5a3.62 3.62 0 000 7.24h170.71c2 .03 3.64-1.57 3.67-3.57a3.63 3.63 0 00-3.56-3.67H206.95z" id="d"/><path d="M724.31 145.53c2 .04 3.59 1.68 3.56 3.68a3.614 3.614 0 01-3.56 3.56h-170.7c-2 .04-3.66-1.55-3.69-3.55a3.62 3.62 0 013.55-3.69H724.31z" id="e"/><path d="M724.31 112.57a3.62 3.62 0 010 7.24h-48.83a3.62 3.62 0 01-3.67-3.57 3.615 3.615 0 013.55-3.67H724.31z" id="f"/><path d="M724.31 179.5a3.62 3.62 0 010 7.24h-170.7c-2 .04-3.66-1.55-3.69-3.55a3.62 3.62 0 013.55-3.69H724.31z" id="g"/><path d="M201.39 319.32c-4.57 0-8.28-2.64-8.29-5.9v-50.99c.01-3.25 3.72-5.89 8.29-5.89h234.6c4.57 0 8.28 2.64 8.28 5.89v50.99c0 3.26-3.71 5.89-8.28 5.9h-234.6z" id="h"/><path d="M157.84 214.89c-.33.68-.68 1.34-1.05 2H81.7c-.37-.66-.72-1.32-1.05-2-10.51-21.31-1.75-47.11 19.56-57.62 21.31-10.51 47.11-1.75 57.62 19.56a43.06 43.06 0 014.44 19.04c.01 6.6-1.51 13.11-4.43 19.02z" id="i"/><path d="M120.34 170.27c-8.12 0-14.71 6.58-14.71 14.7 0 8.13 6.59 14.71 14.71 14.71 8.12 0 14.7-6.58 14.7-14.71 0-8.12-6.58-14.7-14.7-14.7z" id="j"/><path d="M120.34 180.07c-2.71 0-4.9 2.2-4.9 4.9 0 2.71 2.19 4.91 4.9 4.91 2.7 0 4.9-2.2 4.9-4.91 0-2.7-2.2-4.9-4.9-4.9z" id="k"/><path d="M102.32 120.74c17.17-3.83 33.91 5.67 37.38 21.23 3.47 15.56-7.91 21.3-25.08 25.13-17.17 3.83-33.63 4.31-37.11-11.24-3.47-15.56 7.63-31.28 24.81-35.12z" id="l"/><path d="M52.55 83.03c-2.76 0-4.99 2.23-4.99 4.99v123.87c0 2.76 2.23 5 4.99 5h123.88a5 5 0 004.99-5V88.02c0-2.76-2.24-4.99-4.99-4.99H52.55zm126.87 128.86c0 1.66-1.34 3-2.99 3H52.55c-1.65 0-2.99-1.34-2.99-3V88.02c0-1.65 1.34-2.99 2.99-3h123.88c1.65.01 2.99 1.35 2.99 3v123.87z" id="m"/><path d="M758.83 83.03c-2.76 0-4.99 2.23-4.99 4.99v123.87c0 2.76 2.23 5 4.99 5H882.7c2.76 0 5-2.24 5-5V88.02c0-2.76-2.24-4.99-5-4.99H758.83zM885.7 211.89c0 1.66-1.34 3-3 3H758.83c-1.65 0-2.99-1.34-3-3V88.02a3.022 3.022 0 013-3H882.7c1.66.01 3 1.35 3 3v123.87z" id="n"/><path d="M916.67 38.4v2H20.59v-2h896.08z" id="o"/><path d="M42.56 13.1c-4.96 0-8.99 4.02-8.99 8.99 0 4.96 4.03 8.99 8.99 8.99 4.97 0 8.99-4.03 8.99-8.99 0-4.97-4.02-8.99-8.99-8.99z" id="p"/><path d="M71.53 13.1c-4.96 0-8.99 4.02-8.99 8.99 0 4.96 4.03 8.99 8.99 8.99 4.97 0 8.99-4.03 8.99-8.99 0-4.97-4.02-8.99-8.99-8.99z" id="q"/><path d="M100.5 13.1c-4.96 0-8.99 4.02-8.99 8.99 0 4.96 4.03 8.99 8.99 8.99 4.97 0 8.99-4.03 8.99-8.99 0-4.97-4.02-8.99-8.99-8.99z" id="r"/><path d="M166.02 214.61c9 7.3 14.44 15.51 12.15 18.34-2.29 2.82-11.44-.8-20.45-8.1-9-7.3-14.44-15.51-12.14-18.34 2.29-2.82 11.44.8 20.44 8.1z" id="s"/><path d="M77.11 177.65c9.01 7.3 14.45 15.51 12.15 18.33-2.29 2.83-11.44-.8-20.44-8.1-9.01-7.3-14.45-15.5-12.15-18.33 2.29-2.83 11.44.8 20.44 8.1z" id="t"/><path d="M166.58 287.47c-4.57 0-8.28-2.64-8.28-5.9v-50.99c0-3.25 3.71-5.89 8.28-5.89h234.6c4.57 0 8.28 2.64 8.28 5.89v50.99c0 3.26-3.71 5.89-8.28 5.9h-234.6zm0-60.42c-2.74 0-4.97 1.58-4.97 3.53v50.99c0 1.95 2.23 3.54 4.97 3.54h234.6c2.74 0 4.97-1.59 4.97-3.54v-50.99c0-1.95-2.23-3.53-4.97-3.53h-234.6z" id="u"/><path d="M200.92 236.69c-10.48 0-18.98 8.5-18.98 18.98s8.5 18.98 18.98 18.98 18.98-8.5 18.98-18.98-8.5-18.98-18.98-18.98z" id="v"/><path d="M241.92 242.06c-2 .03-3.6 1.68-3.56 3.68.03 1.95 1.6 3.53 3.56 3.56h135.74c2 .03 3.64-1.57 3.67-3.57a3.63 3.63 0 00-3.56-3.67H241.92z" id="w"/><path d="M241.92 262.04c-2 .03-3.6 1.68-3.56 3.68.03 1.95 1.6 3.53 3.56 3.56h135.74c2 .03 3.64-1.57 3.67-3.57a3.63 3.63 0 00-3.56-3.67H241.92z" id="x"/><path d="M495.99 235.26a4.49 4.49 0 00-4.49 4.49v93.9c0 2.49 2.01 4.5 4.49 4.5h364.63c2.48 0 4.49-2.01 4.5-4.5v-93.9a4.505 4.505 0 00-4.5-4.49H495.99z" id="y"/><path d="M495.99 593.89a7.511 7.511 0 01-7.49-7.49V240.75c.01-4.14 3.36-7.49 7.49-7.49h364.63c4.14 0 7.49 3.35 7.49 7.49V586.4c0 4.13-3.35 7.48-7.49 7.49H495.99zm0-357.64a4.505 4.505 0 00-4.49 4.5V586.4a4.49 4.49 0 004.49 4.49h364.63c2.48 0 4.49-2.01 4.5-4.49V240.75a4.52 4.52 0 00-4.5-4.5H495.99z" id="z"/><path d="M651.68 377.43v1.99h109.39c11.21 0 20.3 9.09 20.3 20.31 0 11.21-9.09 20.31-20.3 20.31H595.55c-11.22 0-20.31-9.1-20.31-20.31 0-11.22 9.09-20.31 20.31-20.31h6.18v-1.99h-6.18c-12.32 0-22.31 9.98-22.31 22.3s9.99 22.3 22.31 22.3h165.52c12.32 0 22.3-9.98 22.3-22.3s-9.98-22.3-22.3-22.3H651.68z" id="A"/><path d="M651.68 446.36v1.99h109.39c11.21 0 20.3 9.09 20.3 20.31 0 11.21-9.09 20.31-20.3 20.31H595.55c-11.22 0-20.31-9.1-20.31-20.31 0-11.22 9.09-20.31 20.31-20.31h6.18v-1.99h-6.18c-12.32 0-22.31 9.98-22.31 22.3s9.99 22.3 22.31 22.3h165.52c12.32 0 22.3-9.98 22.3-22.3s-9.98-22.3-22.3-22.3H651.68z" id="B"/><path d="M651.68 515.28v2h109.39c11.21 0 20.3 9.09 20.3 20.31 0 11.21-9.09 20.3-20.3 20.3H595.55c-11.22 0-20.31-9.09-20.31-20.3 0-11.22 9.09-20.31 20.31-20.31h6.18v-2h-6.18c-12.32 0-22.31 9.99-22.31 22.31 0 12.32 9.99 22.3 22.31 22.3h165.52c12.32 0 22.3-9.98 22.3-22.3s-9.98-22.31-22.3-22.31H651.68z" id="C"/><path d="M614.08 372.15c-3.28.05-5.9 2.75-5.84 6.04.05 3.2 2.63 5.78 5.84 5.84h26.06c3.28.05 5.98-2.57 6.03-5.85a5.933 5.933 0 00-5.84-6.03h-26.25z" id="D"/><path d="M614.08 442.08c-3.28.05-5.9 2.75-5.84 6.03a5.941 5.941 0 005.84 5.85h26.06c3.28.05 5.98-2.57 6.03-5.85a5.933 5.933 0 00-5.84-6.03.605.605 0 00-.19 0h-26.06z" id="E"/><path d="M614.08 510.01c-3.28.05-5.9 2.75-5.84 6.03a5.941 5.941 0 005.84 5.85h26.06c3.28.05 5.98-2.56 6.04-5.84.06-3.28-2.55-5.99-5.83-6.04h-26.27z" id="F"/><path d="M603.74 393.79c-3.28.05-5.89 2.76-5.84 6.04a5.94 5.94 0 005.84 5.84h148.94a5.941 5.941 0 00.19-11.88H603.74z" id="G"/><path d="M603.74 462.72c-3.28.05-5.89 2.76-5.84 6.04a5.94 5.94 0 005.84 5.84h148.94a5.941 5.941 0 00.19-11.88H603.74z" id="H"/><path d="M603.74 531.65c-3.28.05-5.89 2.76-5.84 6.04a5.94 5.94 0 005.84 5.84h148.94a5.941 5.941 0 00.19-11.88H603.74z" id="I"/><path d="M543.36 310.67c-13.24 0-23.97-10.73-23.97-23.97 0-13.24 10.73-23.98 23.97-23.98 13.19-.05 23.92 10.59 23.98 23.77v.21c0 13.24-10.74 23.97-23.98 23.97z" id="J"/><path d="M586.36 267.78c-3.28.05-5.9 2.75-5.84 6.03a5.941 5.941 0 005.84 5.85h148.93c3.28.05 5.99-2.56 6.05-5.84.05-3.28-2.56-5.99-5.84-6.04H586.36z" id="K"/><path d="M586.36 293.75c-3.28.05-5.9 2.76-5.84 6.04.05 3.2 2.63 5.79 5.84 5.84h244.83c3.28.06 5.99-2.56 6.05-5.84.06-3.28-2.56-5.98-5.84-6.04H586.36z" id="L"/><path d="M938.35 469.15c-.15.49-.32.98-.48 1.48h-41.66c.04-.44.09-.94.13-1.48.01-.17.03-.34.04-.52h12.8a4.49 4.49 0 004.49-4.49V243.42c.98 2.14 1.99 4.36 3 6.67 15.87 36.06 34.77 92.36 32.85 153a239.49 239.49 0 01-11.17 66.06z" id="M"/><path d="M945.31 470.63h-31.26c.24-.42.51-.92.83-1.48 5.17-9.32 20.45-37.18 34.63-66.06 15.25-31.04 29.23-63.26 28.06-74.92.36 2.63 10.91 82.8-31.18 140.98-.35.5-.71.99-1.08 1.48z" id="N"/><path d="M20.63 470.88c.08.25.17.5.25.75h21.14c-.02-.23-.04-.48-.06-.75-1.41-16.21-9.54-114.87.18-131.74-.85 1.37-28.81 46.7-27.17 98.21.3 11.38 2.21 22.67 5.66 33.53z" id="O"/><path d="M17.1 471.63h15.87c-.12-.21-.26-.47-.42-.75-2.63-4.73-10.38-18.87-17.58-33.53C7.23 421.59.13 405.24.73 399.32c-.19 1.33-5.54 42.03 15.82 71.56.18.25.36.5.55.75z" id="P"/><path d="M888.08 152.13c.91 3.52-7.45 8.73-18.67 11.62-11.22 2.9-21.06 2.4-21.97-1.13-.91-3.52 7.45-8.72 18.67-11.62 11.22-2.9 21.06-2.4 21.97 1.13z" id="Q"/><path d="M787.9 141.99c3.36 1.4 2.48 11.21-1.97 21.91s-10.77 18.25-14.13 16.85c-3.36-1.4-2.48-11.2 1.97-21.91 4.44-10.7 10.77-18.24 14.13-16.85z" id="R"/><path d="M825.69 109.48c-23.18 0-41.97 18.79-41.97 41.97s18.79 41.97 41.97 41.97 41.97-18.79 41.97-41.97-18.79-41.97-41.97-41.97z" id="S"/><path d="M806.82 207.32c-9.33-9.19-7.95-16.56-.1-22.85 1.27 0 11.47-.05 12.75-.06-5.88 7.24-7.45 14.76.1 22.85-2.55.01-11.47.05-12.75.06z" id="T"/><path d="M819.73 204.34c1.11 1.9-2.1 5.84-7.17 8.79-5.07 2.96-10.08 3.82-11.18 1.92-1.11-1.9 2.1-5.84 7.16-8.8 5.07-2.96 10.08-3.81 11.19-1.91z" id="U"/><path d="M829.8 207.32c-9.33-9.19-7.95-16.56-.11-22.85 1.28 0 11.48-.05 12.75-.06-5.88 7.24-7.44 14.76.11 22.85-2.55.01-11.48.05-12.75.06z" id="V"/><path d="M842.71 204.34c1.1 1.9-2.1 5.84-7.17 8.79-5.07 2.96-10.08 3.82-11.19 1.92-1.11-1.9 2.1-5.84 7.17-8.8 5.07-2.96 10.08-3.81 11.19-1.91z" id="W"/><path d="M824.58 126.48c-7.93 0-14.35 6.43-14.35 14.35s6.42 14.34 14.35 14.34c7.92 0 14.34-6.42 14.34-14.34s-6.42-14.35-14.34-14.35z" id="X"/><path d="M824.66 142.95a4.78 4.78 0 100 9.56 4.78 4.78 0 000-9.56z" id="Y"/><path d="M841.86 78.09c-16.77-3.66-33.05 5.68-36.37 20.87-3.32 15.2 7.81 20.74 24.58 24.41 16.77 3.66 32.83 4.05 36.15-11.14 3.32-15.19-7.59-30.48-24.36-34.14z" id="Z"/><path d="M824.67 179.36c-5.28.04-9.59-4.22-9.63-9.5v-.02-.01c-.02-5.29 4.26-6.4 9.54-6.42 5.28-.03 9.57 1.05 9.59 6.33.03 5.28-4.22 9.59-9.5 9.62z" id="aa"/><path d="M560.03 303.92c-8.93 8.66-23.02 9.04-32.4.86-.02-.3-.03-.61-.03-.91 0-8.96 7.26-16.22 16.22-16.22 8.95 0 16.21 7.26 16.21 16.22v.05z" id="ab"/><path d="M544.22 294.22a5.54 5.54 0 100 11.08c3.07 0 5.55-2.48 5.55-5.54s-2.48-5.54-5.55-5.54z" id="ac"/><path d="M544.22 297.91c-1.02 0-1.84.83-1.84 1.85s.82 1.85 1.84 1.85 1.85-.83 1.85-1.85-.83-1.85-1.85-1.85z" id="ad"/><path d="M537.43 275.54c6.47-1.44 12.79 2.14 14.1 8 1.3 5.87-2.99 8.03-9.46 9.48-6.48 1.45-12.68 1.63-13.99-4.24-1.31-5.87 2.88-11.79 9.35-13.24z" id="ae"/><path d="M686.86 207.48c4.06-2.37 9.14-3.6 13.58-1.49 1.75.67 3.03 2.18 3.41 4.01.17 2-.99 3.88-2.85 4.63-1.82.95-4 .95-5.82-.01a7.316 7.316 0 01-3.22-5.81c-.43-5.74 3.97-9.94 9.04-11.73 6.5-2.3 13.51-1.23 20.24-1.07 6.45.14 12.89-.42 19.22-1.67 14.07-2.76 27.3-8.8 38.61-17.62 1.52-1.19-.62-3.3-2.12-2.12a88.552 88.552 0 01-38.94 17.16 98.987 98.987 0 01-22.02 1.03c-7.03-.34-14.65-.35-20.68 3.83-4.9 3.41-7.82 9.56-5.7 15.44a9.316 9.316 0 005.43 5.78c2.43.8 5.07.59 7.35-.56a7.419 7.419 0 003.77-9.77c-.41-.91-.99-1.73-1.71-2.41-3.89-3.62-10.13-3.86-14.91-2.15-10.99 3.93-18.64 15.63-17.95 27.28.09 1.44.3 2.87.62 4.27.43 1.88 3.32 1.08 2.89-.8-2.3-10.05 2.94-21.08 11.76-26.22z" id="af"/><path d="M200.92 234.65c-11.05 0-20 8.96-20 20 0 11.05 8.95 20 20 20 11.04 0 20-8.95 20-20 0-11.04-8.96-20-20-20z" id="ag"/><path d="M199.96 266.45v-2.91c-1.47-.03-2.99-.55-3.88-1.27.06-.19.55-1.73.61-1.93 1.05.79 2.33 1.23 3.65 1.24 1.8 0 3.02-1.18 3.02-2.82 0-1.59-.99-2.57-2.87-3.43-2.58-1.16-4.18-2.48-4.18-4.99 0-2.39 1.49-4.21 3.83-4.64v-2.91h1.57v2.8c1.17.01 2.32.36 3.3 1-.06.19-.57 1.72-.64 1.91-.94-.65-2.05-.99-3.19-.98-1.96 0-2.69 1.32-2.69 2.48 0 1.49.94 2.24 3.14 3.28 2.62 1.21 3.94 2.71 3.94 5.28 0 2.27-1.4 4.41-4.01 4.89v3h-1.6z" id="ah"/></defs><use xlink:href="#a" fill="#e6e6e6"/><use xlink:href="#a" fill-opacity="0" stroke="#000" stroke-opacity="0"/><use xlink:href="#b" fill="#e6e6e6"/><use xlink:href="#b" fill-opacity="0" stroke="#000" stroke-opacity="0"/><use xlink:href="#c" fill="#e6e6e6"/><use xlink:href="#c" fill-opacity="0" stroke="#000" stroke-opacity="0"/><use xlink:href="#d" fill="#e6e6e6"/><use xlink:href="#d" fill-opacity="0" stroke="#000" stroke-opacity="0"/><use xlink:href="#e" fill="#e6e6e6"/><use xlink:href="#e" fill-opacity="0" stroke="#000" stroke-opacity="0"/><use xlink:href="#f" fill="#e6e6e6"/><use xlink:href="#f" fill-opacity="0" stroke="#000" stroke-opacity="0"/><use xlink:href="#g" fill="#e6e6e6"/><use xlink:href="#g" fill-opacity="0" stroke="#000" stroke-opacity="0"/><use xlink:href="#h" fill="#e6e6e6"/><use xlink:href="#h" fill-opacity="0" stroke="#000" stroke-opacity="0"/><use xlink:href="#i" fill="#2f2e41"/><use xlink:href="#i" fill-opacity="0" stroke="#000" stroke-opacity="0"/><use xlink:href="#j" fill="#fff"/><use xlink:href="#j" fill-opacity="0" stroke="#000" stroke-opacity="0"/><use xlink:href="#k" fill="#3f3d56"/><use xlink:href="#k" fill-opacity="0" stroke="#000" stroke-opacity="0"/><use xlink:href="#l" fill="#6c63ff"/><use xlink:href="#l" fill-opacity="0" stroke="#000" stroke-opacity="0"/><use xlink:href="#m" fill="#3f3d56"/><use xlink:href="#m" fill-opacity="0" stroke="#000" stroke-opacity="0"/><use xlink:href="#n" fill="#3f3d56"/><use xlink:href="#n" fill-opacity="0" stroke="#000" stroke-opacity="0"/><use xlink:href="#o" fill="#e6e6e6"/><use xlink:href="#o" fill-opacity="0" stroke="#000" stroke-opacity="0"/><use xlink:href="#p" fill="#e6e6e6"/><use xlink:href="#p" fill-opacity="0" stroke="#000" stroke-opacity="0"/><use xlink:href="#q" fill="#e6e6e6"/><use xlink:href="#q" fill-opacity="0" stroke="#000" stroke-opacity="0"/><use xlink:href="#r" fill="#e6e6e6"/><use xlink:href="#r" fill-opacity="0" stroke="#000" stroke-opacity="0"/><use xlink:href="#s" fill="#2f2e41"/><use xlink:href="#s" fill-opacity="0" stroke="#000" stroke-opacity="0"/><use xlink:href="#t" fill="#2f2e41"/><use xlink:href="#t" fill-opacity="0" stroke="#000" stroke-opacity="0"/><use xlink:href="#u" fill="#3f3d56"/><use xlink:href="#u" fill-opacity="0" stroke="#000" stroke-opacity="0"/><use xlink:href="#v"/><use xlink:href="#v" fill-opacity="0" stroke="#000" stroke-opacity="0"/><use xlink:href="#w" fill="#3f3d56"/><use xlink:href="#w" fill-opacity="0" stroke="#000" stroke-opacity="0"/><use xlink:href="#x" fill="#3f3d56"/><use xlink:href="#x" fill-opacity="0" stroke="#000" stroke-opacity="0"/><use xlink:href="#y" fill="#6c63ff"/><use xlink:href="#y" fill-opacity="0" stroke="#000" stroke-opacity="0"/><use xlink:href="#z" fill="#3f3d56"/><use xlink:href="#z" fill-opacity="0" stroke="#000" stroke-opacity="0"/><use xlink:href="#A" fill="#e6e6e6"/><use xlink:href="#A" fill-opacity="0" stroke="#000" stroke-opacity="0"/><use xlink:href="#B" fill="#e6e6e6"/><use xlink:href="#B" fill-opacity="0" stroke="#000" stroke-opacity="0"/><use xlink:href="#C" fill="#e6e6e6"/><use xlink:href="#C" fill-opacity="0" stroke="#000" stroke-opacity="0"/><use xlink:href="#D" fill="#3f3d56"/><use xlink:href="#D" fill-opacity="0" stroke="#000" stroke-opacity="0"/><g><use xlink:href="#E" fill="#3f3d56"/><use xlink:href="#E" fill-opacity="0" stroke="#000" stroke-opacity="0"/></g><g><use xlink:href="#F" fill="#3f3d56"/><use xlink:href="#F" fill-opacity="0" stroke="#000" stroke-opacity="0"/></g><g><use xlink:href="#G" fill="#e6e6e6"/><use xlink:href="#G" fill-opacity="0" stroke="#000" stroke-opacity="0"/></g><g><use xlink:href="#H" fill="#e6e6e6"/><use xlink:href="#H" fill-opacity="0" stroke="#000" stroke-opacity="0"/></g><g><use xlink:href="#I" fill="#e6e6e6"/><use xlink:href="#I" fill-opacity="0" stroke="#000" stroke-opacity="0"/></g><g><use xlink:href="#J" fill="#fff"/><use xlink:href="#J" fill-opacity="0" stroke="#000" stroke-opacity="0"/></g><g><use xlink:href="#K" fill="#fff"/><use xlink:href="#K" fill-opacity="0" stroke="#000" stroke-opacity="0"/></g><g><use xlink:href="#L" fill="#fff"/><use xlink:href="#L" fill-opacity="0" stroke="#000" stroke-opacity="0"/></g><g><use xlink:href="#M" fill="#e6e6e6"/><use xlink:href="#M" fill-opacity="0" stroke="#000" stroke-opacity="0"/></g><g><use xlink:href="#N" fill="#e6e6e6"/><use xlink:href="#N" fill-opacity="0" stroke="#000" stroke-opacity="0"/></g><g><use xlink:href="#O" fill="#e6e6e6"/><use xlink:href="#O" fill-opacity="0" stroke="#000" stroke-opacity="0"/></g><g><use xlink:href="#P" fill="#e6e6e6"/><use xlink:href="#P" fill-opacity="0" stroke="#000" stroke-opacity="0"/></g><g><use xlink:href="#Q" fill="#2f2e41"/><use xlink:href="#Q" fill-opacity="0" stroke="#000" stroke-opacity="0"/></g><g><use xlink:href="#R" fill="#2f2e41"/><use xlink:href="#R" fill-opacity="0" stroke="#000" stroke-opacity="0"/></g><g><use xlink:href="#S" fill="#2f2e41"/><use xlink:href="#S" fill-opacity="0" stroke="#000" stroke-opacity="0"/></g><g><use xlink:href="#T" fill="#2f2e41"/><use xlink:href="#T" fill-opacity="0" stroke="#000" stroke-opacity="0"/></g><g><use xlink:href="#U" fill="#2f2e41"/><use xlink:href="#U" fill-opacity="0" stroke="#000" stroke-opacity="0"/></g><g><use xlink:href="#V" fill="#2f2e41"/><use xlink:href="#V" fill-opacity="0" stroke="#000" stroke-opacity="0"/></g><g><use xlink:href="#W" fill="#2f2e41"/><use xlink:href="#W" fill-opacity="0" stroke="#000" stroke-opacity="0"/></g><g><use xlink:href="#X" fill="#fff"/><use xlink:href="#X" fill-opacity="0" stroke="#000" stroke-opacity="0"/></g><g><use xlink:href="#Y" fill="#3f3d56"/><use xlink:href="#Y" fill-opacity="0" stroke="#000" stroke-opacity="0"/></g><g><use xlink:href="#Z" fill="#6c63ff"/><use xlink:href="#Z" fill-opacity="0" stroke="#000" stroke-opacity="0"/></g><g><use xlink:href="#aa" fill="#fff"/><use xlink:href="#aa" fill-opacity="0" stroke="#000" stroke-opacity="0"/></g><g><use xlink:href="#ab" fill="#2f2e41"/><use xlink:href="#ab" fill-opacity="0" stroke="#000" stroke-opacity="0"/></g><g><use xlink:href="#ac" fill="#fff"/><use xlink:href="#ac" fill-opacity="0" stroke="#000" stroke-opacity="0"/></g><g><use xlink:href="#ad" fill="#3f3d56"/><use xlink:href="#ad" fill-opacity="0" stroke="#000" stroke-opacity="0"/></g><g><use xlink:href="#ae" fill="#6c63ff"/><use xlink:href="#ae" fill-opacity="0" stroke="#000" stroke-opacity="0"/></g><g><use xlink:href="#af" fill="#3f3d56"/><use xlink:href="#af" fill-opacity="0" stroke="#000" stroke-opacity="0"/></g><g><use xlink:href="#ag" fill="#6c63ff"/><use xlink:href="#ag" fill-opacity="0" stroke="#000" stroke-opacity="0"/></g><g><use xlink:href="#ah" fill="#f2f2f2"/><use xlink:href="#ah" fill-opacity="0" stroke="#000" stroke-opacity="0"/></g></svg>