<svg data-name="Layer 1" xmlns="http://www.w3.org/2000/svg" viewBox="0 0 808 607.018"><path fill="#ccc" d="M203.7 186.04h405.24v2H203.7z"/><path fill="#ccc" d="M405 1.002h2v186.036h-2z"/><path fill="#ccc" d="M235.35 93.02h341.3v2h-341.3z"/><path d="M470.54 330.342a41.97 41.97 0 01-10.39 27.66c-.6.69-1.23 1.35-1.87 2h-59.5c-.64-.65-1.27-1.31-1.87-2a41.846 41.846 0 01-8.59-15.45s.01 0 0-.01a42.017 42.017 0 01-1.8-12.2 40.808 40.808 0 01.31-5.09 42.013 42.013 0 0183.39-.11 42.463 42.463 0 01.32 5.2zM375.58 360.002h-5.14l3.99-2 .12-.06.03.06 1 2z" fill="#2f2e41"/><path fill="#2f2e41" d="M410.61 360.002h-5.14l1-2 .03-.06.12.06 3.99 2z"/><circle cx="425.588" cy="320.067" r="14.359" fill="#fff"/><ellipse cx="616.686" cy="469.411" rx="4.766" ry="4.8" transform="rotate(-45 341.856 632.759)" fill="#3f3d56"/><path d="M461.67 284.639c.633-15.554-12.772-28.728-29.94-29.425s-31.597 11.346-32.229 26.9 11.302 19.087 28.47 19.784 33.068-1.706 33.7-17.26z" fill="#6c63ff"/><path d="M440.068 346.9a9.572 9.572 0 11-18.836 3.429l-.003-.019c-.942-5.202 3.08-7.043 8.283-7.984s9.614-.628 10.556 4.574z" fill="#fff"/><path d="M647 358H155a18 18 0 000 36h492a18 18 0 000-36z" fill="#ccc"/><path d="M610 204v155h-2V204q0-8.055-.63-15.96c-.05-.67-.1-1.33-.16-2a200.662 200.662 0 00-31.2-91.02c-.43-.67-.86-1.33-1.3-2A201.969 201.969 0 00407 2.01c-.33-.01-.67-.01-1-.01s-.67 0-1 .01q-5.685.015-11.28.36a200.47 200.47 0 00-43.17 7.37 199.6 199.6 0 00-23.43 8.3 203.248 203.248 0 00-89.83 74.98c-.44.67-.87 1.33-1.3 2a200.662 200.662 0 00-31.2 91.02c-.06.67-.11 1.33-.16 2Q204 195.945 204 204v155h-2V204q0-9.12.79-18.03a202.465 202.465 0 0132.25-93.15A204.174 204.174 0 01351.62 7.36 202.849 202.849 0 01394.64.32Q400.28.005 406 0a204.228 204.228 0 01203.21 186.02q.78 8.88.79 17.98z" fill="#3f3d56"/><path d="M349.635 502.074c56.612.967 56.604 85.176-.001 86.135-56.61-.967-56.602-85.176.001-86.135z" fill="#2f2e41"/><path fill="#2f2e41" d="M330.01 578.941h13.084v23.442H330.01zM356.177 578.941h13.084v23.442h-13.084z"/><path d="M340.913 598.567c14.138-.1 14.138 8.278 0 8.177-14.138.1-14.138-8.278 0-8.177z" fill="#2f2e41"/><path d="M367.08 598.022c14.138-.1 14.138 8.278 0 8.177-14.137.1-14.137-8.278 0-8.177z" fill="#2f2e41"/><path d="M350.726 519.52c19.25.086 19.248 29.354-.001 29.438-19.249-.087-19.247-29.355 0-29.439z" fill="#fff"/><path d="M350.726 529.332c6.366-.093 6.366 9.907 0 9.813-6.366.093-6.366-9.907 0-9.813z" fill="#3f3d56"/><path d="M307.859 505.09c-8.092-36.891 53.888-50.724 62.25-13.898 3.477 15.572-7.915 21.316-25.105 25.154s-33.668 4.318-37.145-11.256z" fill="#ccc"/><path d="M368.409 386.456c10.033-26.274 22.679-21.44 12.629 4.827-10.033 26.273-22.679 21.439-12.63-4.827z" fill="#2f2e41"/><path d="M292.405 414.493c10.023-55.727 93.143-42.229 85.022 13.799-10.022 55.724-93.143 42.226-85.022-13.8z" fill="#2f2e41"/><path fill="#2f2e41" d="M315.291 455.191h13.084v23.442h-13.084zM341.458 455.191h13.084v23.442h-13.084z"/><path d="M326.194 474.816c14.137-.1 14.137 8.279 0 8.178-14.138.1-14.138-8.279 0-8.178z" fill="#2f2e41"/><path d="M352.361 474.271c14.138-.1 14.138 8.279 0 8.178-14.137.1-14.138-8.279 0-8.178z" fill="#2f2e41"/><path d="M293.14 381.34c-8.092-36.892 53.888-50.725 62.25-13.898 3.477 15.571-7.915 21.315-25.105 25.154s-33.668 4.318-37.146-11.256z" fill="#6c63ff"/><path d="M266.952 392.18c3.044-8.19 43.332 10.918 38.912 18.457-3.043 8.189-43.332-10.92-38.912-18.457z" fill="#2f2e41"/><ellipse cx="668.205" cy="492.895" rx="6.594" ry="21.006" transform="rotate(-40.645 372.437 684.257)" fill="#2f2e41"/><ellipse cx="580.971" cy="492.895" rx="21.006" ry="6.594" transform="rotate(-49.355 323.558 632.938)" fill="#2f2e41"/><path d="M763 136.002h-59a10 10 0 010-20v2a8 8 0 000 16h59zM702 189.002h-59a10 10 0 010-20v2a8 8 0 000 16h59zM779 241.002v-2a8 8 0 000-16h-59v-2h59a10 10 0 010 20zM798 59.002v-2a8 8 0 000-16h-59v-2h59a10 10 0 010 20zM706 78.002h-59a10 10 0 010-20v2a8 8 0 000 16h59zM130 268.002H71a10 10 0 010-20v2a8 8 0 000 16h59zM161 302.002v-2a8 8 0 000-16h-59v-2h59a10 10 0 010 20zM69 321.002H10a10 10 0 010-20v2a8 8 0 000 16h59zM134 157.002H75a10 10 0 010-20v2a8 8 0 000 16h59zM165 191.002v-2a8 8 0 000-16h-59v-2h59a10 10 0 010 20zM73 210.002H14a10 10 0 010-20v2a8 8 0 000 16h59zM559 465.002h-59a10 10 0 010-20v2a8 8 0 000 16h59zM625 519.002v-2a8 8 0 000-16h-59v-2h59a10 10 0 010 20zM505 529.002h-59a10 10 0 010-20v2a8 8 0 000 16h59zM291 524.002v-2a8 8 0 000-16h-59v-2h59a10 10 0 010 20zM113 549.002H54a10 10 0 010-20v2a8 8 0 000 16h59z" fill="#e6e6e6"/><path d="M510.886 607.002h-381a1 1 0 010-2h381a1 1 0 010 2z" fill="#3f3d56"/><path d="M186.53 606.232c-.77 1.77-3.35.24-2.59-1.51a100.86 100.86 0 007.17-25.9 109.443 109.443 0 00-3.45-45.66l-.48-1.6c-.38-1.22-.78-2.44-1.2-3.64a103.062 103.062 0 00-22.68-37.46c-1.33-1.4.79-3.52 2.12-2.12a103.417 103.417 0 0116.34 22.52 108.082 108.082 0 015.58 12.08c.63 1.61 1.22 3.24 1.78 4.87a114.24 114.24 0 015.81 30.06 107.162 107.162 0 01-8.4 48.36z" fill="#3f3d56"/><path d="M209.43 453.402q-4.995 18.285-9.98 36.57-5.175 18.93-10.33 37.84-.735 2.685-1.46 5.35l-.48-1.6c-.38-1.22-.78-2.44-1.2-3.64.45-1.66.9-3.32 1.36-4.98l1.86-6.81q8.67-31.77 17.34-63.53a1.5 1.5 0 012.89.8z" fill="#3f3d56"/><path d="M147.743 457.77c-1.748 3.837-3.512 7.722-4.27 11.87s-.411 8.652 1.832 12.222a20.34 20.34 0 007.421 6.459c4.187 2.388 9.631 4.074 13.635 1.392 4.045-2.71 4.474-8.833 2.209-13.142s-6.476-7.198-10.582-9.813-7.325-4.681-9.988-8.756zM218.996 418.68c-4.006 1.316-8.058 2.653-11.62 4.908s-6.64 5.562-7.744 9.63a20.339 20.339 0 00.282 9.835c1.082 4.697 3.533 9.843 8.22 10.968 4.733 1.136 9.526-2.698 11.158-7.285s.902-9.64.04-14.431-1.523-8.559-.332-13.279zM147.116 505.252c1.112 4.067 2.244 8.18 4.318 11.851s5.222 6.911 9.23 8.217a20.34 20.34 0 009.837.212c4.745-.846 10.007-3.035 11.366-7.66 1.372-4.67-2.217-9.65-6.716-11.51s-9.583-1.384-14.412-.764-8.624 1.093-13.278-.333zM159.116 558.252c1.112 4.067 2.244 8.18 4.318 11.851s5.222 6.911 9.23 8.217a20.34 20.34 0 009.837.212c4.745-.846 10.007-3.035 11.366-7.66 1.372-4.67-2.217-9.65-6.716-11.51s-9.583-1.384-14.412-.764-8.624 1.093-13.278-.333zM224.884 523.252c-1.112 4.067-2.244 8.18-4.318 11.851s-5.222 6.911-9.23 8.217a20.34 20.34 0 01-9.837.212c-4.745-.846-10.007-3.035-11.366-7.66-1.372-4.67 2.217-9.65 6.716-11.51s9.583-1.384 14.412-.764 8.624 1.093 13.278-.333zM236.884 469.252c-1.112 4.067-2.244 8.18-4.318 11.851s-5.222 6.911-9.23 8.217a20.34 20.34 0 01-9.837.212c-4.745-.846-10.007-3.035-11.366-7.66-1.372-4.67 2.217-9.65 6.716-11.51s9.583-1.384 14.412-.764 8.624 1.093 13.278-.333z" fill="#6c63ff"/></svg>